<?xml version="1.0" encoding="utf-8"?>
<svg width="868.448" height="1242.23" viewBox="0 0 868.448 1242.23" fill="none" xmlns="http://www.w3.org/2000/svg">
  <g transform="matrix(-1 0 0 1 868.448 0)">
    <g transform="translate(197 0)">
      <path d="M182.041 0.13562C182.041 0.13562 326.803 -9.71204 378.572 138.425C379.08 139.886 379.639 141.335 380.248 142.757C385.807 155.745 416.733 238.585 358.713 357.347C358.713 357.347 299.111 474.718 196.268 509.456C196.268 509.456 93.1115 488.518 29.2052 352.725C29.2052 352.725 -38.9862 222.487 33.0294 102.057C33.0294 102.057 79.9474 7.10828 182.041 0.13562C182.041 0.13562 182.041 0.13562 182.041 0.13562Z" fill="#b5a109ff" />
      <path d="M22.0703 0L34.2383 19.5703L46.4102 39.1406L23.2031 39.8008L0 40.4688L11.0352 20.2305L22.0703 0L22.0703 0Z" fill="#b5a109ff" transform="translate(176 502)" />
      <path d="M0 0C0 0 76.2148 38.4102 88.4531 124.684C100.691 210.961 68.5078 272.293 42.082 318.801C42.082 318.801 110.977 144.902 0 0C0 0 0 0 0 0Z" fill="#ffffffa2" transform="translate(277 66)" />
      <path d="M25.7305 715.23L23.3125 715.23L20.6602 633.992L19.1914 588.93L19.1914 588.559L14.7031 450.84L10.75 329.652L7.38281 226.34L7.38281 226.332L1.83203 56.4805L0.550781 17.0898L0.472656 14.5391L0.472656 14.5312L0 0.101562L2.41016 0L2.88281 14.4609L2.88281 14.4688L2.97266 17.0195L4.19141 54.3516L9.73047 224.391L13.25 332.371L17.1914 453.441L21.5117 585.922L21.6016 588.43L23.1602 636.422L23.1602 636.43L25.7305 715.23L25.7305 715.23Z" fill="#b5a109ff" transform="translate(199 527)" />
    </g>
    <g transform="translate(0 73)">
      <path d="M182.042 0.13562C182.042 0.13562 326.804 -9.71204 378.573 138.417C379.081 139.886 379.64 141.327 380.249 142.757C385.808 155.737 416.734 238.577 358.714 357.347C358.714 357.347 299.113 474.706 196.265 509.448C196.265 509.448 93.1125 488.507 29.2063 352.725C29.2063 352.725 -38.9851 222.475 33.0266 102.057C33.0266 102.057 79.9485 7.09656 182.042 0.13562C182.042 0.13562 182.042 0.13562 182.042 0.13562Z" fill="#b30b1cff" />
      <path d="M22.0742 0L34.2422 19.5703L46.4141 39.1406L0 40.4609L11.0352 20.2305L22.0742 0L22.0742 0Z" fill="#b30b1cff" transform="translate(173 501)" />
      <path d="M0 0C0 0 76.2148 38.4102 88.4531 124.691C100.691 210.961 68.5039 272.289 42.0781 318.809C42.0781 318.809 110.977 144.898 0 0C0 0 0 0 0 0Z" fill="#ffffffa2" transform="translate(274 65)" />
      <path d="M17.6094 389.59L15.207 389.59L1.59766 40.8008L1.20703 30.8711L0.578125 14.7109L0.578125 14.6992L0 0.0898438L2.41797 0L2.98047 14.6289L2.98047 14.6484L3.62891 31.2383L4.00781 41.0117L17.6094 389.59L17.6094 389.59Z" fill="#b30b1cff" transform="translate(191 526)" />
    </g>
    <g transform="translate(475 73)">
      <path d="M182.043 0.135742C182.043 0.135742 326.801 -9.71582 378.571 138.417C379.078 139.886 379.641 141.323 380.25 142.757C385.809 155.733 416.731 238.573 358.715 357.347C358.715 357.347 299.11 474.706 196.266 509.444C196.266 509.444 93.1097 488.515 29.2034 352.726C29.2034 352.726 -38.9841 222.476 33.0276 102.054C33.0276 102.054 79.9495 7.10449 182.043 0.135742C182.043 0.135742 182.043 0.135742 182.043 0.135742Z" fill="#a50bb9ff" />
      <path d="M22.0703 0L34.2422 19.5703L46.4102 39.1406L23.2031 39.8008L0 40.457L11.0352 20.2305L22.0703 0L22.0703 0Z" fill="#a50bb9ff" transform="translate(176 502)" />
      <path d="M0 0C0 0 76.2148 38.3984 88.4531 124.68C100.691 210.949 68.5078 272.289 42.082 318.801C42.082 318.801 110.984 144.891 0 0C0 0 0 0 0 0Z" fill="#ffffffa2" transform="translate(277 66)" />
      <path d="M15.4805 367.621L13.0703 367.621L0.5625 16.1406L0.25 7.33984L0 0.0898438L2.41016 0L2.67188 7.26953L2.98047 16.0625L2.98047 16.0703L15.4805 367.621L15.4805 367.621Z" fill="#a50bb9ff" transform="translate(197 535)" />
    </g>
  </g>
</svg>