<?xml version="1.0" encoding="utf-8"?>
<svg width="121" height="121" viewBox="0 0 121 121" fill="none" xmlns="http://www.w3.org/2000/svg">
  <g>
    <path d="M75.6238 42.0139C75.6238 42.0139 67.221 42.0139 67.221 42.0139C64.9006 42.0139 63.0196 43.8949 63.0196 46.2153C63.0196 48.5357 64.9006 50.4167 67.221 50.4167C67.221 50.4167 67.221 58.8195 67.221 58.8195C67.221 58.8195 62.2455 58.8195 62.2455 58.8195C62.7435 57.474 63.0054 56.0527 63.0196 54.6181C63.0196 48.9112 59.1872 43.9179 53.6764 42.4425C48.1656 40.9672 42.351 43.3779 39.5007 48.3198C38.7428 49.6205 38.7388 51.2273 39.4902 52.5317C40.2417 53.8361 41.6336 54.6388 43.139 54.6358C44.6444 54.6327 46.0331 53.8244 46.7792 52.517C47.53 51.2185 48.9156 50.4182 50.4154 50.4167C52.7358 50.4167 54.6168 52.2977 54.6168 54.6181C54.6168 56.9384 52.7358 58.8195 50.4154 58.8195C48.0951 58.8195 46.2141 60.7005 46.2141 63.0209C46.2141 65.3412 48.0951 67.2222 50.4154 67.2222C52.7358 67.2222 54.6168 69.1033 54.6168 71.4236C54.6168 73.744 52.7358 75.625 50.4154 75.625C48.9163 75.6235 47.5313 74.8239 46.7803 73.5264C46.0341 72.219 44.6454 71.4108 43.1401 71.4077C41.6348 71.4047 40.2429 72.2073 39.4914 73.5117C38.74 74.8161 38.7439 76.4228 39.5017 77.7235C42.3527 82.6649 48.1677 85.0747 53.6782 83.5985C59.1888 82.1224 63.0204 77.1285 63.0196 71.4236C63.0054 69.989 62.7435 68.5676 62.2455 67.2222C62.2455 67.2222 67.221 67.2222 67.221 67.2222C67.221 67.2222 67.221 79.8264 67.221 79.8264C67.221 82.1467 69.102 84.0278 71.4224 84.0278C73.7428 84.0278 75.6238 82.1467 75.6238 79.8264C75.6238 79.8264 75.6238 50.4167 75.6238 50.4167C77.9441 50.4167 79.8252 48.5357 79.8252 46.2153C79.8252 43.8949 77.9441 42.0139 75.6238 42.0139C75.6238 42.0139 75.6238 42.0139 75.6238 42.0139ZM25.3343 38.8321C25.8974 41.0822 28.178 42.4498 30.4281 41.8867C32.6782 41.3236 34.0458 39.043 33.4827 36.7929C33.4827 36.7929 26.1015 7.25809 26.1015 7.25809C25.0355 2.99254 21.2031 0 16.8064 0C12.4097 0 8.57723 2.99254 7.51123 7.25809C7.51123 7.25809 0.12599 36.7929 0.12599 36.7929C-0.238689 38.2486 0.20108 39.7883 1.2796 40.8318C2.35811 41.8753 3.91147 42.2641 5.35436 41.8516C6.79725 41.4391 7.9104 40.288 8.27437 38.8321C8.27437 38.8321 10.6305 29.4097 10.6305 29.4097L22.9795 29.4097C22.9795 29.4097 25.3343 38.8321 25.3343 38.8321ZM12.7317 21.007C12.7317 21.007 15.6596 9.29723 15.6596 9.29723C15.8414 8.8219 16.2975 8.50795 16.8064 8.50795C17.3153 8.50795 17.7714 8.8219 17.9532 9.29723C17.9532 9.29723 20.8795 21.007 20.8795 21.007L12.7317 21.007ZM46.2141 21.007C46.2141 21.007 50.4154 21.007 50.4154 21.007C52.7348 21.0093 54.6145 22.8889 54.6168 25.2083C54.6168 25.2083 54.6168 29.4097 54.6168 29.4097C54.6168 31.7301 56.4979 33.6111 58.8182 33.6111C61.1386 33.6111 63.0196 31.7301 63.0196 29.4097C63.0196 29.4097 63.0196 25.2083 63.0196 25.2083C63.0124 18.2511 57.3741 12.6122 50.4161 12.6042C50.4161 12.6042 46.2148 12.6042 46.2148 12.6042C43.8944 12.6042 42.0134 14.4852 42.0134 16.8056C42.0134 19.1259 43.8944 21.007 46.2148 21.007C46.2148 21.007 46.2141 21.007 46.2141 21.007ZM29.4085 58.8195C29.4085 58.8195 25.2071 58.8195 25.2071 58.8195C22.8877 58.8172 21.008 56.9375 21.0057 54.6181C21.0057 54.6181 21.0057 50.4167 21.0057 50.4167C21.0057 48.0963 19.1247 46.2153 16.8043 46.2153C14.484 46.2153 12.6029 48.0963 12.6029 50.4167C12.6029 50.4167 12.6029 54.6181 12.6029 54.6181C12.6101 61.5753 18.2485 67.2143 25.2064 67.2222C25.2064 67.2222 29.4078 67.2222 29.4078 67.2222C31.7282 67.2222 33.6092 65.3412 33.6092 63.0209C33.6092 60.7005 31.7282 58.8195 29.4078 58.8195C29.4078 58.8195 29.4085 58.8195 29.4085 58.8195Z" fill="#000000" transform="translate(22.923 18.486)" />
  </g>
</svg>
