<?xml version="1.0" encoding="utf-8"?>
<svg width="121" height="121" viewBox="0 0 121 121" fill="none" xmlns="http://www.w3.org/2000/svg">
  <g>
    <path d="M36.6943 0.0012207C36.6943 0.0012207 28.2915 0.0012207 28.2915 0.0012207C25.9712 0.0012207 24.0901 1.88225 24.0901 4.20261C24.0901 6.52297 25.9712 8.404 28.2915 8.404C28.2915 8.404 28.2915 16.8068 28.2915 16.8068C28.2915 16.8068 23.316 16.8068 23.316 16.8068C23.8141 15.4613 24.076 14.04 24.0901 12.6054C24.0901 6.89853 20.2577 1.90516 14.7469 0.429838C9.23608 -1.04549 3.42149 1.36523 0.571216 6.30706C-0.186658 7.60777 -0.19064 9.21457 0.560782 10.519C1.31221 11.8235 2.70415 12.6261 4.20954 12.6231C5.71493 12.62 7.10363 11.8118 7.84977 10.5043C8.60054 9.20581 9.98608 8.40551 11.486 8.404C13.8063 8.404 15.6874 10.285 15.6874 12.6054C15.6874 14.9258 13.8063 16.8068 11.486 16.8068C9.16561 16.8068 7.28459 18.6878 7.28459 21.0082C7.28459 23.3285 9.16561 25.2095 11.486 25.2095C13.8063 25.2095 15.6874 27.0906 15.6874 29.4109C15.6874 31.7313 13.8063 33.6123 11.486 33.6123C9.98679 33.6108 8.60181 32.8112 7.85081 31.5137C7.10463 30.2063 5.71597 29.3981 4.21063 29.3951C2.7053 29.392 1.3134 30.1947 0.561969 31.499C-0.189459 32.8034 -0.185548 34.4101 0.572223 35.7109C3.42327 40.6522 9.2382 43.062 14.7488 41.5858C20.2593 40.1097 24.091 35.1158 24.0901 29.4109C24.076 27.9763 23.8141 26.555 23.316 25.2095C23.316 25.2095 28.2915 25.2095 28.2915 25.2095C28.2915 25.2095 28.2915 37.8137 28.2915 37.8137C28.2915 40.1341 30.1726 42.0151 32.4929 42.0151C34.8133 42.0151 36.6943 40.1341 36.6943 37.8137C36.6943 37.8137 36.6943 8.404 36.6943 8.404C39.0147 8.404 40.8957 6.52297 40.8957 4.20261C40.8957 1.88224 39.0147 0.0012207 36.6943 0.0012207C36.6943 0.0012207 36.6943 0.0012207 36.6943 0.0012207ZM68.3343 80.8321C68.8974 83.0822 71.178 84.4498 73.4281 83.8867C75.6782 83.3236 77.0458 81.043 76.4827 78.7929C76.4827 78.7929 69.1015 49.2581 69.1015 49.2581C68.0355 44.9925 64.2031 42 59.8064 42C55.4097 42 51.5772 44.9925 50.5112 49.2581C50.5112 49.2581 43.126 78.7929 43.126 78.7929C42.7613 80.2486 43.2011 81.7883 44.2796 82.8318C45.3581 83.8753 46.9115 84.2641 48.3544 83.8516C49.7973 83.4391 50.9104 82.288 51.2744 80.8321C51.2744 80.8321 53.6305 71.4097 53.6305 71.4097L65.9795 71.4097C65.9795 71.4097 68.3343 80.8321 68.3343 80.8321ZM55.7317 63.0069C55.7317 63.0069 58.6596 51.2972 58.6596 51.2972C58.8414 50.8219 59.2975 50.5079 59.8064 50.5079C60.3153 50.5079 60.7714 50.8219 60.9532 51.2972C60.9532 51.2972 63.8796 63.0069 63.8796 63.0069L55.7317 63.0069ZM53.2141 23.4028C53.2141 23.4028 57.4154 23.4028 57.4154 23.4028C59.7349 23.4051 61.6145 25.2848 61.6168 27.6042C61.6168 27.6042 61.6168 31.8055 61.6168 31.8055C61.6168 34.1259 63.4979 36.0069 65.8182 36.0069C68.1386 36.0069 70.0196 34.1259 70.0196 31.8055C70.0196 31.8055 70.0196 27.6042 70.0196 27.6042C70.0124 20.6469 64.3741 15.008 57.4161 15C57.4161 15 53.2148 15 53.2148 15C50.8944 15 49.0134 16.881 49.0134 19.2014C49.0134 21.5217 50.8944 23.4028 53.2148 23.4028C53.2148 23.4028 53.2141 23.4028 53.2141 23.4028ZM36.4085 61.2153C36.4085 61.2153 32.2071 61.2153 32.2071 61.2153C29.8877 61.213 28.008 59.3333 28.0057 57.0139C28.0057 57.0139 28.0057 52.8125 28.0057 52.8125C28.0057 50.4921 26.1247 48.6111 23.8043 48.6111C21.484 48.6111 19.6029 50.4921 19.6029 52.8125C19.6029 52.8125 19.6029 57.0139 19.6029 57.0139C19.6101 63.9711 25.2485 69.6101 32.2064 69.6181C32.2064 69.6181 36.4078 69.6181 36.4078 69.6181C38.7282 69.6181 40.6092 67.737 40.6092 65.4167C40.6092 63.0963 38.7282 61.2153 36.4078 61.2153C36.4078 61.2153 36.4085 61.2153 36.4085 61.2153Z" fill="#000000" transform="translate(15.923 16.09)" />
  </g>
</svg>
