<svg xmlns="http://www.w3.org/2000/svg" width="384" height="320" fill="#000" xmlns:v="https://vecta.io/nano"><path d="M326.564 221.078l-10.194-3.763c-4.491 15.736-16.347 24.562-29.217 32.365 3.049 4.872 3.92 5.022 8.627 1.698 7.182-5.071 16.913-6.118 22.532-2.423 8.081 5.314 13.114 15.647 11.574 23.761-1.075 5.665-1.462 5.876-6.754 3.716-.75-.306-1.511-.587-2.536-.983.153-4.616.762-9.098-.887-13.623-1.611-4.421-3.694-7.818-8.546-8.717-5.278-.977-9.349 1.513-13.082 4.825a1.42 1.42 0 0 0-.314.385c-1.263 2.342 5.46 14.526 8.186 14.691 2.157.131 4.331.07 6.494-.016 2.005-.08 3.332.689 3.295 2.768-.035 1.896-1.496 2.423-3.146 2.437l-13.998.076-21.998.01c-5.296 0-10.449 1.385-15.562 1.996-11.268 1.345-22.698 4.272-34.286-.955-6.132-2.766-13.688-2.692-20.658-1.994-8.813.883-17.643 1.26-26.447.871-6.929-.306-12.027 4.938-18.36 5.336-7.717.486-16.467 4.404-23.048-.21-9.08-6.366-18.535-4.759-28.079-4.884l-45.942-.092c-1.166-.001-2.452-.327-3.48.05-6.375 2.342-8.319-1.585-10.232-6.522-4.123-10.644-4.344-21.191.697-31.42 2.918-5.921 7.952-10.107 14.821-10.527 7.978-.488 13.325 4.337 17.694 10.369 5.17 7.139 9.3 14.931 14.01 23.357 6.479-10.819 16.489-15.711 27.343-19.178-.076-2.828-2.141-3.513-3.725-4.565-7.219-4.795-14.235-9.839-19.684-16.699-5.931-7.469-13.231-14.111-14.18-24.546-.316-3.477-3.372-4.526-6.337-5.478-3.714-1.191-7.921-.585-11.761-3.141 2.944-2.799 6.615-3.451 9.715-5.089 10.837-5.722 16.834-15.778 23.182-25.523.917-1.407.14-2.886-.69-4.205-12.542-19.933-12.696-41.818-10.379-64.198 1.463-14.137 5.571-27.677 8.534-41.477.284-1.323.514-2.723 2.053-3.132 1.436-.381 1.961.781 2.657 1.751 8.354 11.646 19.324 20.502 31.446 27.725 8.306 4.949 15.557 10.815 21.494 18.294 1.726 2.173 3.603 3.294 5.908 2.395 14.646-5.718 30.013-5.046 46.8-5.036-5.058-3.228-9.488-3.393-13.598-4.587-2.183-.634-6.13.173-6.128-2.917.001-3.335 3.948-2.353 6.104-2.653 16.674-2.324 31.561.486 41.907 15.487 1.428 2.07 3.387 3.568 5.713 4.695 4.644 2.248 9.173 4.712 13.254 7.936 2.233 1.764 4.797 2.778 7.197.422 9.824-9.643 22.478-13.755 35.032-18.035 6.902-2.354 14.042-4.072 20.801-6.763 5.141-2.046 10.429-4.424 12.423-10.097 2.691.485 2.692 1.928 2.629 3.533-.545 13.954-.155 27.949-2.22 41.831-2.717 18.256-7.411 35.786-18.394 51.033-2.437 3.382-5.319 6.42-9.027 8.494-2.219 1.241-2.465 2.706-1.191 4.908l13.537 23.765c2.248 3.754 6.257 5.909 9.431 8.829 1.52 1.397 3.181 3.141-1.011 3.641zm-58.481 22.9c1.126.304 2.369.397 3.358.947 4.831 2.685 8.779 1.333 13.441-1.268 5.067-2.826 9.535-6.54 13.968-9.925 4.766-3.64 10.891-8.379 7.948-16.607-.69-1.928 1.122-3.167 2.589-3.799 4.085-1.763 3.49-3.826 1.191-6.834-5.702-7.461-9.078-16.199-12.934-24.661-.767-1.682-.804-2.935 1.047-4.216 10.945-7.575 18.123-17.99 22.699-30.39 6.346-17.198 8.374-35.147 9.385-53.258.322-5.771-2.044-7.185-7.414-4.707-3.62 1.67-7.057 3.785-11.061 4.409-7.625 1.187-14.669 4.228-21.778 6.945-8.26 3.157-16.432 6.822-22.534 13.486-5.379 5.876-4.699 5.45-11.144 1.141-5.563-3.719-10.59-9.995-18.762-7.586-10.677-15.417-14.756-19.084-21.184-19.468 3.605 4.547 10.628 5.802 13.569 11.633-1.417 1.818-2.682 1.273-3.976.93-6.575-1.745-13.125-3.278-19.991-3.907-14.916-1.367-29.239.815-43.13 5.911-3.813 1.399-5.764.543-7.938-2.407-5.475-7.427-11.919-13.96-19.744-18.901-7.056-4.456-13.603-9.543-20.069-14.778-3.576-2.895-7.328-5.573-10.849-8.233-1.998.571-2.638 2.032-2.971 3.452-1.811 7.741-3.866 15.413-4.562 23.404-1.173 13.47-1.08 26.903.047 40.36.922 11.018 4.326 21.011 12.044 29.144 1.895 1.997 1.375 3.573.163 5.274-3.65 5.12-7.218 10.316-11.161 15.206-3.584 4.444-7.616 8.527-11.53 12.857 3.516 2.578 7.863 3.499 9.154 8.104-1.307 1.251-3.764 2.123-2.384 4.606 2.891 5.205 5.054 11.15 9.05 15.321 5.22 5.45 10.146 11.425 16.805 15.455 8.541 5.169 16.308 12.382 27.655 9.178 1.541-.434 3.329-.17 4.98-.007 9.295.917 19.523 7.286 22.821 16.768 1.768 5.083.786 10.189 1.776 15.839 6.871 0 13.658.32 20.401-.088 7.142-.432 14.227-1.363 21.358.154 2.46.524 4.073.005 3.87-3.337-.762-12.567 5.366-21.164 17.234-25.446 9.215-3.325 18.448-1.441 28.563-.699zm-101.808 10.316c-2.72-3.314-6.138-5.804-10.238-6.813-13.496-3.319-25.825.606-38.004 6.168-4.575 2.09-7.284 6.142-11.32 8.658-2.629 1.64-3.431 4.272-4.335 7.011-1.059 3.209.067 4.355 3.167 4.337l16.99.006c3.113.085 5.821-.385 7.704-3.562 4.709 3.508 7.79 9.215 14.305 8.735 8.448-.622 6.375-8.078 7.949-13.548 4.64 3.834 4.036 8.421 3.15 13.32 4.132-.677 6.027-3.15 7.902-5.961 2.095-3.14-1.265-6.785 1.036-9.933 4.333 1.728 3.464 5.98 4.855 9.729 2.856-7.021.784-12.417-3.162-18.147zm120.867 5.238c-4.602-3.205-8.886-6.509-14.757-7.895-9.593-2.266-18.937-4.644-28.864-2.377-8.505 1.942-13.559 7.274-15.885 15.409-1.337 4.676 1.373 9.338 6.239 11.215-.499-9.484-.499-9.484 3.453-10.961-.063 3.443.182 6.77 2.909 9.14 1.45 1.26 3.084 2.19 4.997 1.536 2.195-.749 1.484-2.717 1.291-4.277-.312-2.521.087-4.539 2.561-5.532 1.136.665 1.15 1.532 1.188 2.336.321 6.737 6.31 10.361 12.304 5.399 2.146-1.775 4.79-1.784 7.91-1.203 8.119 1.511 16.379.581 24.774.309-.252-6.257-2.669-10.26-8.12-13.099zM71.117 237.198c-6.269-1.934-11.92 1.177-14.694 7.479-3.806 8.647-2.083 17.04.407 25.501.555 1.887 1.357 2.936 3.738 3.085 9.79.614 19.581.396 29.37.396 5.076 0 5.884-1.586 3.247-6.052l-12.027-20.036c-2.444-3.935-4.856-7.992-10.042-10.373zM289 155.645c-1.329 1.78-3.733 1.597-5.599.65-8.438-4.285-18.529-6.237-32.03-4.162-1.722.265-3.735-.013-5.371-1.011 1.883-3.037 8.627-3.114 14.489-3.122 13.431-.017 25.533 3.262 28.511 7.645zm-109.813-12.05c2.949 1.447 5.808 2.639 4.043 3.738-1.403.873-4.279.485-6.598-.43-15.993-6.304-29.824-6.611-42.753-4.007a13.21 13.21 0 0 1-6.988-.412c-1.964-7.954 25.86-7.533 52.296 1.11zm-8.499 23.597c4.409 2.035 8.409 4.085 12.576 5.708 5.936 2.312 10.052-.354 10.821-6.687.193-1.591-.091-3.371 1.555-4.471 5.966 6.122 4.561 13.383-3.227 15.851-2.947.934-3.668 2.96-4.238 5.482-1.845 8.161-5.285 10.224-13.207 8.036-11.529-3.183-23.085-6.23-34.846-8.487-4.108-.788-8.281-.128-12.374-1.244-3.551-.969-5.293-2.439-5.112-6.521.445-9.99 5.498-14.777 17.241-15.89 9.522-.903 17.943 2.668 26.41 6.145 1.383.568 2.713 1.265 4.402 2.077zm-44.022 4.902c.38 4.762 1.239 5.278 6.411 3.638-.522-2.395.927-5.579-2.062-6.995-1.923-.911-3.229.981-4.349 3.357zm96.76 3.614c2.148 4.853 6.087 5.504 12.17 4.478 15.502-2.616 31.123-6.049 46.428 1.401 4.914 2.392 8.722 10.544 6.684 15.502-.965 2.348-2.87 3.36-5.203 2.958-15.698-2.707-31.459-.957-47.199-.845-7.354.053-10.344-2.375-11.444-9.617-.498-3.274-1.731-5.94-3.626-8.553-2.618-3.611-2.072-9.004.986-12.018 2.758 1.67.805 4.218 1.203 6.694zm9.659 11.857c-1.441-1.945-3.158-3.659-4.503-.19-.777 2.003.035 4.294 1.768 5.775 1.027.878 2.595 1.01 3.613-.04 1.654-1.706.06-3.319-.877-5.545zm-23.64-4.561c3.589.667 6.259 1.941 6.621 5.55.374 3.717-2.267 5.641-4.927 7.454-1.399.953-3.968.814-3.665 3.377.29 2.458 2.263 3.694 4.396 4.265 4.972 1.332 9.914 2.719 14.448 5.216 5.212 2.87 7.35 6.884 5.827 12.668-2.84-5.54-6.783-8.688-11.569-11.091-4.807-2.414-10.571-5.194-14.897-4.811-9.235.818-20.139-.504-26.479 9.375-.831 1.294-1.716 2.886-3.424 1.47-1.441-1.194-.722-2.761.298-3.988 4.41-5.3 9.769-8.924 16.841-9.625 2.639-.261 5.27-.712 7.866-1.256 1.352-.283 2.322-1.235 2.643-2.696.365-1.661-.578-2.435-1.927-3.005-2.253-.951-3.575-2.85-4.921-4.774-2.714-3.88-1.314-7.495 3.481-8.107 2.942-.376 5.969-.088 9.388-.022z"/></svg>