<svg xmlns="http://www.w3.org/2000/svg" width="384" height="320" fill="#000" xmlns:v="https://vecta.io/nano"><path d="M317.923 193.084c2.677 2.854 5.965 4.664 7.872 8.153-2.994 1.807-4.951-.706-7.206-1.09-2.265-.385-4.449-1.249-7.658-2.195 1.913 2.965 1.303 4.782-.152 7.11-10.003 16.002-24.555 25.865-41.959 32.11-5.124 1.839-5.172 2.386-2.38 6.966 4.035 6.622 10.992 10.49 15.252 17.471l6.331-7.859a38.56 38.56 0 0 1 7.94-7.545c16.043-11.38 31.439.082 33.229 15.777.516 4.52-.011 8.98-1.862 13.216-.874 1.999-2.065 3.673-4.517 2.685-2.3-.926-1.781-2.9-1.168-4.701 2.49-7.315 1.471-14.166-3.025-20.372-4.448-6.141-9.939-7.222-16.588-3.56-7.11 3.916-11.631 10.419-16.108 16.799-2.307 3.289.465 7.401 4.722 7.509 6.662.168 13.331.055 19.994.176 1.671.03 4.226-.676 4.327 2.017.116 3.092-2.659 2.421-4.476 2.435l-40.491.105c-2.546-.003-4.961.185-7.171 1.636-4.361 2.862-9.621 1.862-14.108 1.787-7.299-.122-14.625 1.307-22.251-2.372-6.319-3.049-14.642-2.803-22.096-1.88-8.982 1.112-17.959.8-26.939.829l-120.422.234c-1.736.004-3.659.141-3.813-2.119-.188-2.756 2.154-2.561 3.908-2.578l23.515-.03c-8.566-5.6-14.905-11.4-20.047-18.643-8.19-11.535-11.398-23.756-7.934-37.709 2.568-10.342 16.233-19.519 28.356-9.139 8.54 7.312 13.898 16.951 19.793 26.164 7.231 11.3 7.009 11.443 19.66 7.343 5.957-1.93 8.09-3.858 13.813-12.59-5.596-3.778-11.369-7.342-16.775-11.394-12.064-9.041-22.786-19.369-29.749-33.039-.377-.74-.996-1.518-.986-2.271.119-8.577-6.311-9.216-12.373-10.337-1.762-.326-3.696-.211-5.017-1.87.049-2.375 2.074-2.224 3.532-2.717 13.722-4.643 21.236-16.092 29.347-26.848 1.466-1.945.162-3.832-1.065-5.461-8.065-10.706-10.631-23.199-11.34-36.142-1.256-22.904 3.309-45.037 9.571-66.895.273-.953.678-1.88 1.13-2.764.205-.4.678-.662 1.235-1.176 3.564 2.63 5.214 6.795 8.231 9.838 7.46 7.523 16.283 13.162 24.861 19.176 8.328 5.838 16.613 11.739 22.236 20.522 1.013 1.583 2.345 2.101 4.275 1.415 15.691-5.573 31.831-6.602 48.255-4.637.243.029.525-.261 1.161-.601-6.768-4.249-14.697-4.91-21.64-7.755.503-1.839 1.481-2.097 2.452-2.344 16.238-4.125 35.74.217 45.017 16.275 1.08 1.869 2.759 2.785 4.584 3.657 5.415 2.587 10.826 5.211 15.433 9.142 1.642 1.401 2.992 1.762 4.749.154 12.014-10.99 26.812-16.446 42.008-21.193 9.903-3.093 20.589-4.992 25.943-15.389 2.245.789 1.83 2.307 1.86 3.549.497 20.346.514 40.679-4.985 60.503-4.237 15.271-10.401 29.554-23.083 39.979-2.296 1.887-2.662 3.49-1.271 6.349 4.452 9.15 8.63 18.415 16.062 26.133zM153.19 232.947c-10.103-2.995-13.579-2.454-14.951 2.304 1.409 1.399 3.656-.929 5.107 1.301-.393.462-.698 1.116-1.205 1.373-8.256 4.184-16.135 9.047-25.556 10.742-7.869 1.416-14.574 11.046-14.496 18.825.039 3.935 1.309 5.568 5.549 5.573l72.38.666c13.136.393 26.218-2.648 39.351-.167 3.126.59 3.536-1.704 3.284-4.134-.618-5.98 1.447-11.121 4.866-15.86 4.663-6.462 11.904-8.113 18.935-10.08-.389-4.694-.257-4.853 4.143-6.219 4.769-1.48 9.639-2.719 14.258-4.577 14.57-5.86 28.933-12.093 38.176-25.89 1.426-2.127 3.142-3.786.97-6.524-1.145-1.445-.477-3.163 1.063-4.365 1.65-1.287 3.251-2.637 5.056-4.109-6.782-8.161-10.095-17.882-14.791-26.864-1.357-2.595-1.007-4.171 1.474-5.777 9.805-6.345 15.336-16.112 19.895-26.34 8.619-19.336 9.497-39.973 9.205-60.725-.011-.808-.106-1.684-1.295-2.224-5.743 1.993-11.6 4.359-17.645 6.061-16.722 4.709-32.358 11.343-44.91 23.844-1.772 1.765-3.426 1.703-5.151-.088-3.156-3.277-7.07-5.515-10.888-7.896-2.722-1.698-5.359-3.371-8.408-.975-7.317-7.773-11.031-19.034-23.646-21.263 4.766 4.769 10.522 7.542 14.109 12.552-1.522 1.663-2.685 1.191-3.768.844-12.918-4.134-26.212-4.627-39.559-3.646-7.946.584-16.043 1.469-22.988 5.868-3.197 2.025-4.541 1.1-6.298-1.641-3.237-5.051-7.127-9.544-11.737-13.508-9.506-8.174-20.746-13.903-30.317-21.985-3.456-2.919-5.982-6.99-10.709-9.239-5.669 22.456-9.978 44.57-6.826 67.424 1.494 10.832 4.695 21.13 11.686 29.829 1.873 2.33 1.29 4.215-.127 6.298-5.996 8.813-11.86 17.734-20.851 23.949-.901.623-2.059 1.263-1.658 2.832.357.263.718.609 1.143.831 3.594 1.879 10.471 1.708 5.487 8.923-.25.361.185 1.275.424 1.883 2.206 5.61 5.303 11.447 9.244 15.159 5.94 5.594 11.135 12.186 18.446 16.512 9.661 5.717 18.042 13.718 29.698 15.669 2.614.437 3.626 2.714 4.641 4.883 0 0-.1.109-.81-.05zM71.57 259.93c7.973 6.016 15.513 12.911 27.133 13.511-2.73-8.996-2.226-16.528 5.852-22.133 2.586-1.795.569-4.409-1.321-5.814-6.614-4.918-10.653-11.823-14.744-18.674-3.003-5.03-6.467-9.67-10.53-13.869-4.466-4.616-11.407-4.992-15.064-.716-5.607 6.557-6.722 14.073-5.064 22.423 1.92 9.673 7.198 17.384 13.737 25.272zm188.511 15.762l8.286-5.571c2.879 5.638 7.353 3.155 11.828 2.991-.246-1.458-.314-2.43-.58-3.344-3.996-13.711-17.179-21.018-29.496-21.333-11.235-.287-19.737 6.249-22.314 16.234-1.474 5.712 1.057 10.103 7.087 11.736-.793-4.026-2.647-8.197 1.368-11.94 3.307 10.981 4.165 11.922 10.59 11.736.596-3.065-1.283-6.824 2.153-9.965 2.083 5.264 2.17 12.228 11.078 9.456zm-35.824-114.279c4.801-19.742 19.58-29.661 37.785-25.676 4.874 1.067 9.096 3.425 12.472 6.984 7.536 7.945 11.582 17.573 11.536 28.47-.053 12.543-11.883 22.394-26.925 22.886-12.678.415-22.946-4.971-31.254-14.145-4.666-5.153-6.153-11.334-3.614-18.519zm9.306-10.781l1.415-1.409c7.332-7.198 15.761-10.441 25.915-6.928 10.299 3.563 15.236 11.519 16.623 21.749 1.469 10.838-4.077 19.181-14.445 22.832-5.932 2.089-12.01 2.068-18.169 1.07 5.003 2.255 10.19 3.33 15.57 2.797 13.159-1.303 25.166-10.059 21.326-27.693-3.674-16.871-16.596-26.581-33.064-23.691-6.907 1.212-12.697 4.433-15.172 11.273zm10.206 3.282c-3.355-.713-5.54.783-6.269 3.923-.554 2.385.933 4.095 3.136 4.96 2.864 1.124 4.81-.334 6.119-2.673 1.57-2.804.168-4.655-2.987-6.209zm-30.588 43.583c-12.407 4.109-25.632.102-32.481-9.871-1.917-2.791-5.897-1.235-7.618-4.403 2.706-3.305 6.315-2.264 9.591-1.854 4.811.603 9.601.844 14.425.456 1.904-.153 3.699-.631 4.282-2.763.556-2.034-1.033-3.012-2.316-4.018-3.032-2.377-7.02-4.794-4.748-9.199 2.178-4.221 6.858-3.179 10.811-2.791 1.309.128 2.616.523 3.864.964 2.48.877 4.51 2.349 4.815 5.175.309 2.862-1.613 4.468-3.68 6.041-1.784 1.358-5.495 1.09-4.718 4.766.833 3.946 4.335 4.173 7.437 4.637 4.781.716 9.914-.561 15.355 2.794-4.695 4.407-10.066 6.637-15.019 10.065zm-9.706-11.283c-2.481-.068-5.003-.285-7.459 1.71 2.693 1.322 4.975.915 7.193.722 1.357-.118 2.283-.773.266-2.432zm-76.286-19.612c-7.236-14.291-3.113-30.434 10.392-41.802 10.017-8.433 25.128-8.46 36.506-.066 11.231 8.285 16.146 28.905 9.546 41.166-4.762 8.846-13.052 12.668-22.503 13.789-13.32 1.579-25.09-1.65-33.941-13.087zm55.615-9.588c-.011-3.159.265-6.351-.085-9.472-1.231-10.985-6.596-19.148-17.219-23.027-15.515-5.665-31.708 3.123-37.288 19.971-3.454 10.43.022 21.233 9.139 27.23 9.795 6.443 20.47 6.742 31.087 2.735 7.476-2.821 12.991-8.055 14.366-17.437zm-39.279 115.59c-5.17-1.051-7.113-6.133-11.72-7.76-2.221-.784-.021-3.47 1.01-5.041 1.198-1.827 3.068-2.397 5.576-2.196.005 3.995 2.556 5.962 6.115 6.966 4.867 1.373 7.319.012 8.835-4.872.987-3.181 1.647-4.129 4.846-6.614 1.663 4.365 3.861 8.538 2.492 13.088-1.539 5.115-6.038 6.066-10.818 6.083-1.983.007-3.965.264-6.336.347z"/><path d="M154.05 232.942c4.398.814 8.823 1.411 13.073 2.623 4.726 1.348 5.302 6.02 6.729 9.822 1.987 5.296 2 10.692-.002 16.01-.526 1.398-1.347 2.811-3.116 2.845-1.695.032-2.874-1.157-3.393-2.534-.945-2.505-2.224-4.77-3.596-7.052-1.244-2.069-1.09-4.455 1.581-5.307 3.012-.962 4.05-2.804 3.351-5.629-.8-3.237-2.575-5.839-6.17-6.333-3.166-.435-6.3-.729-8.484-3.952-.122-.329-.022-.438.027-.493zm100.348-118.057c-1.278.414-2.327.946-3.016-.146-.529-.839.171-1.564.65-2.229.191-.265.445-.5.711-.694 4.615-3.363 9.245-1.793 13.709.21 4.368 1.96 7.975 4.807 8.497 10.088.036.368-.488.792-1.214 1.888-5.102-5.81-10.044-12.102-19.337-9.118zm-86.186-17.287c1.25 1.265 2.755 2.08 1.66 4.576-4.057-.81-7.373-4.298-12.245-3.499-4.737.777-7.183 5.024-11.538 6.481-.022-9.711 11.642-13.557 22.122-7.558zm-34.427 61.415c-7.251-10.072.897-27.686 12.971-32.333 13.414-5.162 26.966.84 31.525 14.054 1.779 5.156 2.331 10.295 1.232 15.68-1.82 8.924-9.133 16.128-18.269 16.368-11.216.295-20.822-3.623-27.46-13.769zm31.404-16.287c-1.383 2.796-1.736 5.526 1.269 7.453 1.864 1.195 3.963 1.001 5.381-.843 1.346-1.751 2.313-3.874.783-5.966-1.836-2.51-4.245-3.034-7.432-.644z"/></svg>