<svg xmlns="http://www.w3.org/2000/svg" width="384" height="320" fill="#000" xmlns:v="https://vecta.io/nano"><path d="M184.709 115.984c16.579 1.299 32.059 4.871 46.252 12.894 3.757 2.124 7.283 4.666 10.86 7.097 1.623 1.103 2.871 1.786 4.808.176 13.012-10.819 28.662-15.961 44.607-20.443 3.682-1.035 7.288-2.336 10.953-3.434 5.543-1.661 8.844-5.953 11.616-10.764.809.737 1.23.938 1.24 1.158 1.345 27.602-1.437 54.54-13.285 79.933-3.985 8.54-9.181 16.277-16.959 21.888-2.279 1.645-2.146 3.243-1.243 5.538 4.903 12.457 11.123 24.17 19.184 34.883.376.499.626 1.093 1.372 2.422-5.319-.367-7.972-5.232-13.263-5.283 3.197 2.346 1.757 4.429.267 6.451-2.765 3.752-5.469 7.559-8.424 11.158-1.552 1.891-1.856 3.592-1.154 5.92 2.133 7.071 2.044 7.13 9.553 6.994l16.979-.409c1.678-.01 4.062-.464 4.193 2.288.145 3.028-2.221 2.786-4.221 2.79-12.165.027-24.336-.195-36.493.115-11.431.29-22.858 1.015-34.068 3.61-2.155.498-4.489.668-6.348-.514-7.504-4.768-16.085-4.348-24.115-3.874-13.667.808-27.306.546-40.95.628l-104.484.14c-.833 0-1.668-.004-2.499-.053-1.365-.082-2.832-.209-2.962-1.974-.148-2.016 1.305-2.527 2.941-2.54l17.496-.073c2.118-.029 4.325.444 6.754-.895-2.013-11.174-2.634-22.611-3.861-33.973-.482-4.463-5.529-8.18-5.223-13.149.478-7.767-4.274-11.241-9.98-14.55-2.696-1.563-5.12-3.684-6.96-6.501.41-.341.802-.923 1.1-.879 9.125 1.358 15.128-3.635 20.484-9.979.43-.509.928-.963 1.335-1.489 2.65-3.423 6.035-6.529 7.729-10.377 2.059-4.677-3.116-7.488-4.779-11.264-5.467-12.413-7.63-25.31-7.733-38.858-.144-18.998 3.081-37.411 7.808-55.665.245-.945.707-1.834 1.004-2.587 1.427-.543 2.229.164 2.759.996 6.629 10.411 16.328 17.481 26.475 23.924 11.167 7.09 21.794 14.709 29.74 25.963 13.138-6.356 26.886-8.078 41.496-7.438zm-60.697 85.01s-.033-.034.3.563c3.093 2.344 3.43 7.266 8.185 8.185 6.442 1.245 12.904 1.601 19.355.781 9.144-1.163 15.43-6.389 16.754-13.376.873-4.611.925-9.196.013-13.836-2.733-13.897-14.526-22.716-28.644-21.274-11.286 1.153-17.874 8.424-23.331 17.499-3.142 5.226-4.195 10.496-2.12 16.162 1.578 4.309 6.477 3.297 9.489 5.296zm10.024 32.346c-4.797 4.136-4.572 9.072-3.045 14.726 1.817 6.725 2.976 13.648 4.06 20.542.502 3.189 1.947 4.147 4.961 4.114 15.313-.171 30.655.488 45.845-2.303 3.264-.6 6.615-.622 9.954-.156 7.524 1.048 15.021.446 22.502-.554 2.895-.387 4.072-1.888 4.397-4.972.887-8.411 5.49-14.519 12.987-18.322 12.836-6.512 29.674-3.284 39.346 7.406.963 1.063 1.556 2.659 3.696 2.487 2.871-2.976 7.939-6.838 7.017-10.049-1.641-5.718.707-7.929 4.838-10.39-4.837-9.015-9.416-17.855-12.803-27.263-1.073-2.98-.822-4.791 1.869-6.762 10.953-8.023 17.854-19.073 22.279-31.667 5.561-15.828 7.586-32.348 8.665-48.995.133-2.048.686-4.286-.884-6.486l-24.114 7.849c-13.949 4.4-28.077 8.842-38.454 20.189-1.702 1.861-3.131 1.864-5.041.114-12.57-11.519-27.672-17.719-44.303-20.275-18.168-2.792-36.197-3.297-53.088 5.82-2.646 1.428-3.937.146-5.27-1.854-4.778-7.166-10.944-12.955-17.998-17.825-11.631-8.03-23.857-15.275-33.742-25.61-.151-.158-.612-.02-1.227-.02-5.575 19.888-6.844 40.163-5.485 60.694.207 3.13 1.201 5.656 3.79 7.752 2.525 2.043 3.61 4.538-.98 5.684 2.566 6.971 5.18 13.441 9.746 18.905 1.381 1.653 2.31 3.325.694 5.345-6.538 8.177-12.348 17.008-21.029 23.251-1.192.857-2.585 1.638-2.442 3.573.843 1.616 2.674 1.714 4.12 2.432 5.222 2.595 6.09 2.241 8.368-3.407 2.991-7.418 10.084-11.054 17.792-8.856 3.448.984 6.718 1.944 10.234-.919-3.324-10.935 1.129-20 8.257-28.088 7.989-9.064 18.012-13.222 30.003-10.199 11.928 3.008 19.866 10.315 22.342 22.888 4.097 20.808-5.267 32.264-26.483 32.19l-12.126-.002c3.924 5.944 4.786 12.02.751 19.014zm-52.628-3.441c1.465 1.602 4.828 1.718 4.311 4.842-1.83 11.064 1.147 21.737 2.344 32.565.467 4.223 2.382 5.57 6.489 5.488 10.473-.209 20.953-.049 31.431-.092 1.422-.006 3.035.446 4.33-1.205l-5.223-29.123c-.637-3.649-.788-6.807 2.888-9.681 5.487-4.29 5.031-11.107-.368-15.766-1.42-1.225-2.471-2.48-3.048-4.37-2.961-9.694-9.666-11.934-18.05-6.168-12.964-6.308-17.962-3.914-19.24 9.217-7.15 2.091-8.721 5.502-5.863 14.293zm152.344 41.167c-.037-2.258-.242-4.573 2.668-6.855 1.289 6.217 3.797 10.79 10.758 9.931 1.072-2.977-1.133-6.222 1.521-8.911.469.501 1.013.889 1.3 1.416 4.8 8.82 7.234 9.099 13.984 1.8 2.73-2.952 3.987-1.794 4.768 1.753.971 4.409 4.753 1.996 7.039 1.973 2.893-.03 1.544-2.512 1.067-4.197-2.92-10.319-10.444-15.671-20.141-18.642-12.489-3.826-25.725 2.689-28.947 14.204-1.717 6.139.788 10.731 6.568 11.991.919-1.389-.507-2.469-.585-4.463zm23.734-111.142l3.965 5.557c1.072 1.39 1.34 2.851-.053 3.948-1.744 1.373-2.838-.256-3.529-1.469-2.453-4.304-5.207-8.239-10.627-8.792-2.709-.276-5.47-.048-8.241-.048 1.761-5.769 10.622-5.46 18.486.804zm-119.181-14.056c-1.134.992-1.956 1.884-3.303 1.454-.157-5.995 6.464-10.642 14.68-10.305 5.427.223 8.779 3.257 8.46 8.303-6.701-4.572-13.354-6.686-19.837.548zm68.763 61.511c1.131-4.974 2.736-9.339 4.892-13.492 5.53-10.655 14.55-15.995 26.317-15.807 11.486.183 20.393 5.468 25.769 15.956 3.556 6.936 5.485 14.324 5.146 22.114-.551 12.689-12.503 21.523-26.733 19.864-9.62-1.122-18.401-4.62-26.149-10.392-5.877-4.379-9.55-10.141-9.243-18.242zm56.637-4.552l-.776-2.371c-4.16-13.374-15.902-20.468-29.678-18.405-12.673 1.897-17.727 11.044-21.72 21.547-2.202 5.793-1.04 10.82 3.028 15.209 8.903 9.608 20.287 13.748 33.069 13.744 7.793-.003 13.445-4.235 16.758-11.406 2.742-5.934.959-11.726-.68-18.319zm-82.207 18.528l4.703-2.425c.884-.467 2.195-1.177 2.715-.246 3.042 5.454 7.922 5.793 13.829 4.928-3.405 3.18-4.595 6.967-6.068 10.696-1.729 4.376-4.864 7.72-9.978 7.789-5.421.072-9.989-1.877-13.109-6.674-3.501-5.382-3.591-11.526-4.781-18.374 4.545 1.73 7.861 4.971 12.691 4.308zm-.159-17.417c4.885-2.029 9.248-1.148 13.391.891 4.364 2.147 4.636 6.708.746 9.576-3.876 2.858-9.525 2.392-13.236-1.352-2.538-2.56-4.91-5.389-.901-9.115zm-66.538 25.268c.884 2.078 2.3 3.258 3.547 4.599 2.705 2.909 3.93 6.206 1.847 9.991-2.048 3.72-5.325 5.604-9.506 4.995-3.299-.48-6.463-.842-9.834-.372-4.268.595-8.042-1.005-10.06-4.973-2.114-4.156-.639-7.69 2.815-10.611 1.124-.95 2.053-2.18 2.896-3.403 4.954-7.184 12.413-7.425 18.296-.226zm2.144-9.162c-5.131 4.606-6.36 4.643-11.59.107-2.697 1.887-5.504 4.082-9.227 2.75-.784 6.24-3.483 9.452-7.339 8.985-2.711-.328-5.165-4.498-4.622-7.854.798-4.929 3.661-6.723 8.906-5.582 2.288-10.544 5.052-11.861 12.19-5.401 2.405-1.681 4.396-5.537 8.228-3.154 3.37 2.095 3.808 5.597 3.573 9.66-.07.44-.118.49-.118.49zm-29.482 4.386c.518 1.598 1.173 3.558 3.243 2.474 1.931-1.011.463-2.521-.363-3.66-1.332-1.837-2.319-1.507-2.88 1.185z"/><path d="M117.015 219.968c3.08-2.858 5.92-2.887 8.353.733 2.317 3.447 1.541 8.914-1.459 10.837-3.063 1.963-7.119.192-8.27-3.607-.78-2.574-.123-4.932 1.19-7.548.117-.338.165-.387.187-.414zm7.016-18.96c-6.319-7.067-6.947-14.621-1.971-23.937 4.536-8.493 13.506-13.131 22.783-12.158 18.504 1.94 25.626 22.991 19.109 36.48-2.727 5.645-8.174 7.759-14.136 7.768-9.167.013-17.774-2.187-25.517-8.064-.32-.135-.287-.102-.268-.088zm28.166-18.548c-2.543 2.908-1.894 5.547 1.059 7.497 2.74 1.81 4.645-.068 6.144-2.206 1.202-1.714.88-3.459-.469-4.972-1.808-2.028-3.911-2.204-6.734-.319zm85.956 45.779c-5.909-.16-10.961-1.76-15.707-4.31-4.997-2.685-8.139-6.701-8.671-12.555-.994-10.93 8.129-23.489 19.148-26.25 10.415-2.61 22.486 3.782 26.87 14.273 2.341 5.601 2.192 11.515.968 17.19-1.524 7.064-7.615 11.215-15.647 11.62-2.16.109-4.329.034-6.961.032zm-11.354-22.773c1.418.307 2.635-.195 3.646-1.101 1.88-1.684 3.046-3.682 1.175-6.012-1.595-1.987-3.587-3.764-6.328-2.058-2.493 1.551-2.81 3.984-1.536 6.478.493.965 1.571 1.631 3.043 2.693zm18.757 16.007c-.381-1.847-1.39-2.619-3.072-1.461-.808.556-1.244 1.656-.467 2.563 1.31 1.53 2.501 1.114 3.539-1.103z"/></svg>