<svg xmlns="http://www.w3.org/2000/svg" width="384" height="320" fill="#000" xmlns:v="https://vecta.io/nano"><path d="M314.331 198.937c-4.001 15.786-16.242 24.494-28.373 33.218-4.765 3.427-10.289 5.452-15.873 7.173-3.751 1.156-4.105 2.883-2.048 6.186 3.782 6.071 10.299 9.449 14.339 15.859l8.723-9.183c2.451-2.493 5.098-4.684 8.207-6.441 14.601-8.253 28.95 4.738 29.886 17.218.284 3.779.645 7.652-.824 11.366-1.004 2.541-2.348 4.811-5.466 3.481-3.464-1.476-2.139-5.256-1.405-7.015 2.773-6.642 1.651-12.505-4.655-18.533-4.116-3.935-9.228-4.33-15.16-.942-6.077 3.47-10.32 8.914-14.389 14.374-2.281 3.06.606 7.47 4.574 7.562l19.468.465c1.673.056 4.161-.594 4.044 2.292-.11 2.72-2.508 2.201-4.225 2.21l-40.487.081c-2.705-.004-5.287.145-7.661 1.683-4.364 2.827-9.579 1.778-14.113 1.771-7.328-.012-14.643.927-22.287-2.331-7.127-3.038-15.905-2.915-24.084-1.743-1.317.189-2.669.642-3.95.497-10.325-1.171-19.693 1.56-28.502 6.731-.143.084-.31.208-.455.194-9.679-.881-20.479 5.577-28.777-4.405-1.026-1.235-2.53-1.49-4.075-1.569-13.962-.716-27.906-.932-41.898-.254-9.609.465-19.278-.334-28.921-.489-2.825-.045-5.655.149-8.48.296-1.896.098-4.025.271-4.262-2.206-.256-2.68 2.012-2.555 3.844-2.653 4.559-.245 9.197.476 14.673-1.06-7.303-5.604-12.547-11.964-16.289-19.488-5.789-11.638-9.479-23.426-3.856-36.377 6.104-14.061 20.048-16.643 30.233-5.114 5.964 6.752 10.803 14.414 14.87 22.438 2.878 5.677 7.192 9.987 11.68 14.167 4.627 4.309 10.43 3.954 14.207-1.213l10.083-13.582-13.949-9.002c-12.342-7.971-22.648-17.906-29.773-30.901-.639-1.165-1.676-2.356-1.721-3.565-.323-8.74-6.886-9.139-13.11-10.07-1.89-.282-4.079.259-5.351-1.837-.042-1.829 1.361-2.177 2.601-2.56 9.848-3.037 16.484-9.83 22.904-17.641 6.23-7.58 8.19-13.211 1.386-22.042-6.636-8.614-7.732-20.121-8.597-30.919-1.816-22.675 2.794-44.714 7.609-66.685.251-1.144.64-2.251 1.722-2.926 1.175-.261 1.995.386 2.486 1.258 5.648 10.032 15.283 15.62 24.418 21.659 8.881 5.871 19.069 10.363 25.591 18.869 5.702 7.436 10.992 7.279 18.907 4.395 12.454-4.536 25.734-4.426 39.003-4.023-7.024-3.148-14.493-4.608-21.632-5.949-.367-1.406-.006-2.079.616-2.273 14.208-4.424 27.864-4.384 40.279 5.174.922.71 2.084 1.367 2.577 2.333 4.237 8.291 12.818 10.56 20.09 14.59 8.183 4.535 8.318 4.537 15.452-1.405 11.423-9.514 25.349-13.79 38.912-18.795 8.744-3.226 17.977-5.526 22.33-14.901 2.807.533 2.428 2.506 2.483 4.031.772 21.321 1.598 42.697-4.226 63.527-4.013 14.353-9.175 28.269-21.466 38.016-2.192 1.739-1.338 3.31-.391 5.211 6.201 12.458 12.999 24.441 24.886 32.551.227.154.267.582.68 1.554-4.754 1.181-8.658-1.288-13.034-2.34zM140.614 230.8c2.587 2.249 7.243 1.871 8.65 7.652-7.344-1.855-13.982-2.177-16.331 7.144 6.362-2.269 12.495-2.914 18.613-3.196 8.986-.414 17.678.644 24.525 7.489 6.351 6.349 9.134 14.045 8.444 23.157 5.006 1.021 9.781.768 14.561.207 5.976-.701 12.021-1.216 17.915-.001 4.617.951 5.84-.332 5.755-4.913-.192-10.316 4.46-17.834 14.117-22.002 5.757-2.485 11.62-4.836 17.477-6.919 15.136-5.381 30.316-10.634 42.083-22.03 4.692-4.544 11.679-8.776 8.661-17.558-.615-1.789.862-3.033 1.988-4.302 1.065-1.2 3.128-1.379 3.508-3.731-6.563-7.597-10.109-17.245-15.303-25.941-1.429-2.393-1.47-4.043 1.122-5.813 11.352-7.754 16.697-19.696 21.109-31.966 5.253-14.61 5.293-30.098 5.981-45.374.191-4.23.101-8.797-1.249-13.08l-26.417 9.522c-13.419 4.883-26.14 10.913-35.612 22.136-1.916 2.27-3.581 2.089-5.959.41-6.054-4.276-11.295-10.494-19.988-9.175-.58.088-1.441-.784-1.966-1.389-2.289-2.638-4.751-5.174-6.686-8.059-3.407-5.077-7.894-8.317-14.479-9.765 4.227 4.746 10.211 6.706 13.565 11.503-1.724 1.895-3.28 1.539-4.617.991-3.94-1.615-8.13-1.796-12.247-2.239-17.306-1.863-34.239-.957-49.977 7.55-2.663 1.439-3.909.047-5.273-1.892a73.34 73.34 0 0 0-22.904-21.208c-7.721-4.575-15.097-9.747-22.499-14.839-2.797-1.924-5.236-4.368-8.135-6.827-.659 1.419-1.227 2.255-1.449 3.175-4.826 20.025-7.219 40.273-4.735 60.839 1.46 12.088 5.206 23.379 13.481 32.725 1.827 2.064 1.727 3.936.174 6.265-6.245 9.366-12.424 18.765-21.195 26.547 2.072 1.21 3.738 1.968 5.141 3.063s3.299 2.446 2.215 4.504c-1.469 2.789-.117 4.985 1.171 6.971 3.38 5.21 6.641 10.376 10.943 15.11 9.995 10.997 22.066 18.55 35.82 25.258zm-70.188 32.305c5.027 4.139 10.297 7.913 16.567 9.933 6.703 2.159 9.096.928 11.903-5.339.795-1.776 2.144-3.34 3.408-4.861 2.202-2.648 4.536-5.186 6.987-7.966-3.104-2.538-6.828-3.336-9.202-6.341-4.025-5.095-8.057-10.142-11.339-15.777-3.844-6.6-7.407-13.424-12.893-18.904-4.723-4.717-9.522-4.735-14.539-.351-4.354 3.804-5.852 8.806-6.069 14.259-.55 13.872 5.495 25.027 15.175 35.347zm82.837 17.698c8.091-1.453 5.933-8.425 6.664-14.186 5.275 3.905 4.296 8.848 4.063 13.826 8.038-2.7 10.009-8.406 8.608-16.183 4.646 1.89 4.088 5.867 6.015 9.193 1.284-9.643-1.22-16.976-8.868-21.9-6.897-4.441-14.721-5.067-22.616-3.868-10.936 1.66-21.159 5.663-31.001 10.56-4.642 2.31-8.849 5.241-10.38 10.805-.89 3.232-.296 4.728 3.299 4.684l21.968.017c2.697.031 5.291.029 7.032-2.46 2.655 1.182 4.223 3.168 5.952 4.928 2.37 2.413 4.809 4.633 9.264 4.584zm81.366-5.54c-1.266-3.62-1.744-7.097 1.515-10.686 3.504 10.83 4.126 11.495 10.599 11.689.864-3.054-1.383-6.923 2.014-9.62 5.644 12.725 6.106 12.684 19.549 3.818 3.384 3.417 6.906 3.962 13.288 2.023.222-2.49-1.217-4.418-2.338-6.408-6.163-10.941-16.186-15.971-28.098-17.406-11.056-1.332-20.296 5.092-23.278 15.379-1.789 6.172 1.275 11.481 6.749 11.211zm51.314-106.765c2.21 16.534-10.808 27.41-28.906 27.6-11.071.116-20.388-4.04-27.799-12.432-7.106-8.047-7.689-17.971-1.507-29.812 6.347-12.158 16.49-18.075 29.134-16.995 12.299 1.051 23.285 10.652 27.267 23.923.716 2.385 1.154 4.854 1.81 7.716zm-14.652-21.301c-10.604-10.341-30.049-7.468-35.549 2.401 11.729-8.946 22.898-9.057 33.597.188 7.584 6.553 10.564 18.821 6.432 27.883-5.923 12.99-18.086 12.578-29.356 13.071 5.838 2.246 13.611 2.593 20.142.771 9.794-2.731 16.102-9.741 16.151-18.502.056-9.958-3.59-18.473-11.418-25.811zm-31.118 18.077c3.93 1.004 6.264-.836 6.463-4.547.167-3.114-2.11-4.667-5.238-4.548-1.804.069-3.171 1.052-3.79 2.723-.901 2.432-.368 4.536 2.564 6.371zm-75.005-39.735c16.445 7.374 25.202 26.902 19.641 43.395-2.672 7.924-8.948 12.359-16.41 14.874-11.034 3.72-21.961 2.989-32.311-2.657-10.464-5.708-14.152-14.888-13.129-26.358 1.265-14.192 13.654-27.883 27.565-30.532 4.873-.928 9.595-.298 14.644 1.278zm-17.447 56.337c5.295 1.371 10.65 1.129 15.819-.246 8.328-2.216 15.995-6.031 18.241-15.151 2.733-11.096.604-21.577-7.353-30.189-10.58-11.451-33.077-12.409-43.823 6.968-9.608 17.325-3.019 33.647 17.115 38.62zm48.875 5.081c2.518-.25 4.423-.807 5.008-3.155.657-2.639-1.5-3.323-3.148-4.407-3.28-2.156-5.725-5.058-4.298-9.126 1.37-3.908 5.22-3.639 8.527-3.455 2.12.118 4.224.795 6.299 1.356 2.497.675 4.846 1.734 5.084 4.736.221 2.795-1.514 4.667-3.649 6.117-1.973 1.34-5.06 1.863-4.082 5.296.894 3.138 3.738 3.455 6.397 3.829l18.737 2.61c2.025.321 4.394.601 4.915 3.28-.646 1.51-1.775 1.354-2.979 1.16-20.023-3.234-40.071-5.396-60.265-1.392-1.548.307-3.649 1.214-4.068-1.21-.381-2.205 1.779-2.496 3.369-2.84 7.817-1.693 15.77-2.256 24.154-2.799zm-32.239-80.428c-8.637-5.457-14.799-.089-21.225 4.998.098-7.232 8.144-12.802 15.411-11.524 2.791.491 5.534 1.351 7.411 3.662 1.261 1.554 1.68 3.077-1.597 2.864zm87.651 6.88c11.507-2.294 20.937 2.978 20.506 12.318-6.809-6.302-13.131-13.123-22.83-7.659-1.172-3.026.599-3.63 2.324-4.659zm-114.618 57.26c-6.83-5.55-8.607-12.438-6.546-20.358 2.468-9.488 7.947-16.564 17.707-19.188 15.342-4.125 29.201 6.536 30.826 22.586 2.126 20.995-16.28 28.586-32.092 22.431-3.406-1.326-6.673-3.01-9.895-5.472zm29.276-24.437c-2.783.985-3.87 3.02-3.397 5.837.332 1.978 1.579 3.275 3.601 3.634 2.24.398 4.111-.501 4.959-2.482 1.83-4.272-.754-6.061-5.164-6.99z"/></svg>