<svg xmlns="http://www.w3.org/2000/svg" width="384" height="320" fill="#000" xmlns:v="https://vecta.io/nano"><path d="M297.013 224.989c1.46 5.48-3.216 7.568-6.068 10.454-3.237 3.277-6.993 6.042-10.558 9.059 1.857 4.926 6.249 6.693 9.783 9.287 1.563 1.147 2.743-.619 3.916-1.393 8.336-5.502 16.813-8.016 26.02-1.866 7.288 4.868 11.266 14.374 9.455 23.052-.39 1.869-.082 4.522-3.183 3.841-2.544-.559-6.383-1.618-5.138-4.736 2.084-5.218-1.1-8.754-2.32-12.982-1.306-4.522-4.41-6.297-8.837-6.599-5.453-.373-9.679 1.868-13.118 5.864-.795.924-.134 1.873.389 2.745.682 1.138 1.771 2.24 1.924 3.453.939 7.437 5.658 8.771 12.011 7.869 2.059-.293 4.423-.206 4.361 2.628-.063 2.871-2.578 2.519-4.543 2.527l-33.488.096c-5.784.026-11.637-.7-17.076 2.354-1.327.745-3.234.546-4.881.616-5.639.238-11.308-.37-16.915.848-2.5.544-5.109.05-7.345-.99-9.41-4.377-19.276-4.122-29.244-3.335-2.821.223-5.659.399-8.486.352-10.948-.179-21.322 1.169-32.025 4.773-9.212 3.101-20.411 4.99-29.457-3.073-1.62-1.444-3.607-1.509-5.642-1.507-21.811.019-43.622-.034-65.433.042-8.232.029-8.341.195-10.963-7.623-3.209-9.57-3.925-19.1.423-28.671 3.175-6.989 8.366-11.292 15.83-12.187 7.914-.949 13.219 4.076 17.404 9.794 4.209 5.751 7.737 12.019 10.849 18.488.907 1.886 1.789 3.984 4.093 5.251 2.742-1.825 4.109-4.969 6.263-7.37 1.492-1.663-.203-2.991-1.643-3.962-7.656-5.162-13.753-11.879-19.207-19.239-.297-.4-.855-.723-.937-1.15-1.636-8.557-8.618-6.789-14.34-7.495-2.036-.251-4.326.834-6.328-1.222 1.659-3.036 4.79-4.58 7.235-6.489 8.578-6.699 12.096-16.388 16.76-25.564 3.147-6.19 2.208-10.124-2.989-14.703-8.841-7.79-13.09-18.758-17.38-29.378-7.835-19.396-11.385-39.903-14.679-60.442-.263-1.642-1.085-3.402.628-4.578 1.979-1.358 2.871.886 4.209 1.619 7.981 4.373 16.786 6.361 25.533 8.159 16.879 3.469 34.071 5.731 49.217 14.849 1.306.786 2.316.896 3.649.101 12.417-7.411 25.64-12.599 40.09-14.351.454-.055.876-.362 1.416-.595-7.459-3.499-15.369-.995-24.454-1.893 5.484-5.162 10.822-8.066 16.553-8.634 8.515-.844 17.335-1.79 25.45 2.566 1.752.94 3.937 1.511 5.16 2.916 4.154 4.773 9.528 6.388 15.484 6.942 8.251.768 15.677 4.201 23.089 7.499 3.63 1.615 6.48 1.916 10.18-.32 14.064-8.5 29.528-12.607 45.891-13.815 8.113-.599 16.175-1.892 24.252-2.94 5.245-.68 10.121-2.05 12.645-7.443.359-.767 1.218-1.097 3.505-.981-3.97 36.374-8.954 71.98-36.431 99.685 5.806 12.252 16.048 19.904 27.782 26.318-5.138 2.56-10.232.966-15.07 1.404.01 8.629-4.346 15.351-9.401 21.748-.813 1.029-2.115.773-3.703.13-1.464-3.682-.136-6.249 1.736-8.832 1.9-2.621 3.769-5.347 4.371-8.507-2.012-1.939-5.443-.959-6.342-4.339 2.298-3.48 6.602-4.436 10.309-7.084-6.695-4.868-9.899-11.933-14.326-18.115-2.898-4.045-1.673-6.102 1.532-8.596 4.204-3.27 8.048-6.928 10.919-11.498 10.363-16.49 16.154-34.666 19.063-53.734.783-5.132 2.758-10.251 2.021-15.99-10.563 1.873-20.812 3.635-31.239 4.166-16.517.841-32.315 4.669-46.234 13.858-4.895 3.231-8.383 2.746-13.123.144-8.02-4.404-16.698-7.28-25.809-8.293-2.208 4.59-2.195 4.51-5.659 1.089-7.609-7.512-15.299-14.963-28.087-13.372 6.799 1.951 12.878 4.01 17.312 8.956-1.313 1.778-2.562 1.566-3.684 1.58-19.584.258-37.757 5.339-54.269 15.973-2.217 1.428-3.946 1.023-5.948-.262-4.207-2.701-8.614-5.058-13.323-6.772-13.816-5.03-28.348-7.012-42.645-10.014-5.078-1.066-10.058-2.6-15.595-4.055l2.082 11.425c3.313 19.351 7.221 38.592 17.11 55.837 4.321 7.536 8.798 15.274 16.473 20.252 3.189 2.069 2.206 4.893 1.037 7.548-3.408 7.736-7.383 15.264-10.18 23.211-1.31 3.722-5.493 5.242-6.105 9.464 1.075.327 1.825.705 2.601.766 5.14.4 7.965 2.476 6.812 8.245-.233 1.166.806 2.961 1.787 3.934 6.224 6.171 12.007 12.887 19.973 17.026 1.702.884 3.401 1.412 5.222.407 9.072-5.005 19.052-6.803 29.141-8.054 14.022-1.737 24.612 4.498 30.577 17.335 2.052 4.416 1.025 9.172 2.334 13.959 6.578.703 13.197.825 19.837.51 6.991-.331 14.038-.979 20.947.211 4.23.728 4.848-.613 4.639-4.36-.503-9 2.943-16.112 10.804-20.95 9.025-5.555 18.77-6.117 28.887-4.538 2.783.435 5.592 1.101 8.285-.415 7.282-4.098 14.149-8.786 19.625-15.165 1.978-2.305 4.077-3.266 6.967-2.749zM124 273.684c2.877.62 4.546-1.201 6.088-3.545 4.716 3.354 7.611 9.253 14.085 8.808 8.39-.577 6.906-7.755 8.128-13.517 5.256 3.842 3.188 8.935 3.288 13.858 4.201-.704 6.298-3.305 7.837-6.539 1.487-3.124-.676-6.805 1.176-10.467 3.437 2.969 3.551 6.619 3.886 10.428 2.104-1.564 2.121-3.407 2.153-5.185.155-8.754-6.568-17.695-15.094-20.136-13.78-3.947-39.815 4.631-48.592 15.829-2.318 2.957-3.167 6.061-2.759 10.468l19.805-.002zm111.651-8.426c2.71.319 1.419 2.568 1.798 3.929 1.321 4.741 4.12 6.775 9.068 6.233 1.148-2.978-1.309-7.042 2.302-9.396 1.721.666 1.295 2.034 1.544 3.085 1.611 6.778 5.862 8.611 11.803 5.002 1.415-.86 2.715-1.918 4.023-2.943.981-.769 1.951-1.3 3.157-.526 8.054 5.165 16.535.929 24.828 2.103.635-5.603-1.514-9.156-5.032-11.577-3.789-2.607-7.223-5.514-11.699-7.517-8.81-3.942-17.706-5.606-27.062-5.371-12.385.312-20.122 6.169-22.625 16.469-1.296 5.334.998 9.473 6.28 11.127.329-3.402-1.427-7 1.615-10.618zM95.84 272.637c-5.595-10.531-11.302-21.021-18.452-30.584-6.626-8.862-16.632-7.252-21.115 2.897-4.004 9.066-2.636 17.736.958 26.447.593 1.436 1.448 2.172 2.945 2.158 11.762-.116 23.537.8 35.664-.918zm156.121-139.18c-.804 2.56-4.013 4.275-6.918 4.915-13.138 2.896-27.216 9.079-43.637 21.369-2.094 1.567-4.846 2.897-7.479 3.315.875-4.069 9.572-9.385 17.162-13.955 17.391-10.471 34.757-17.082 40.872-15.644zm-98.06 20.703c1.262 1.95 2.581 3.655.936 4.22-1.307.449-3-.55-4.094-1.887-7.542-9.215-16.392-12.647-25.974-13.305-1.44-.099-2.986-.536-4.356-1.96 2.324-7.464 20.218-.734 33.488 12.932zm-3.807 27.629c3.806 2.83 7.982 4.107 11.896 5.874 4.692 2.119 7.304.233 7.19-5.003-.039-1.778-.917-3.607 1.068-5.875 3.455 3.587 1.571 8.654 3.912 12.228-4.528.842-6.651 4.104-7.321 7.775-3.662 20.065-22.178 31.128-41.725 24.824-10.518-3.392-19.128-8.491-21.089-20.601-1.002-6.184-1.251-12.19 2.596-17.622.44-.622 1.494-1.047.702-2.031-3.627-4.507.319-5.858 3.232-7.176 8.685-3.932 17.264-2.31 25.633 1.181 4.595 1.917 9.048 4.174 13.906 6.426zm5.639 19.899c-3.26 9.32-10.555 14.071-20.612 17.14 15.76-.431 25.047-6.635 27.871-17.819 1.416-5.609.664-6.926-5.247-9.061-2.532 2.598-.764 6.057-2.012 9.741zm-18.068-15.14c1.154 3.106 2.299 6.613 6.628 5.007 1.629-.604 3.366-2.562 2.915-4.761-.407-1.984-2.565-2.38-4.227-3.056-2.4-.977-4.198-.372-5.315 2.81zm79.614 27.568c-7.996-3.856-14.268-8.742-15.788-17.8-.35-2.086-2.038-2.718-3.728-3.59-6.293-3.249-7.881-9.64-3.926-15.346 2.163.938 1.478 2.8 1.105 4.231-.712 2.728.532 4.504 2.396 6.08 2.13 1.8 4.193.553 6-.517 5.438-3.22 10.724-6.698 16.151-9.94 8.307-4.963 16.773-9.531 26.61-10.833 3.398-.45 6.759-.181 9.895.71 3.499.993 7.543 1.313 7.524 7.239-.012 3.794 4.056 6.926 4.988 11.194 1.629 7.465-.981 13.238-6.342 17.796-12.949 11.01-27.621 15.673-44.885 10.776zm43.968-34.907c-1.706-4.301-4.925-5.88-11-5.371 7.297 10.658 7.668 21.221 1.092 32.252 13.545-6.558 16.862-15.63 9.908-26.881zm-44.445 8.728c2.163 2.836 4.082 1.364 5.692-.52.913-1.068 2.075-2.758.387-3.931-2.165-1.505-3.663.606-5.186 1.713-.575.418-.735 1.405-.893 2.738zm-54.874 48.353c2.714-7.356 8.09-11.655 14.419-15.014 2.032-1.078 4.517-1.75 4.389-4.771-.119-2.789-2.699-2.476-4.337-3.366-3.204-1.742-5.989-3.894-5.581-8.05.393-3.999 3.796-4.656 6.809-5.567 1.099-.332 2.297-.402 3.456-.46 3.911-.197 8.112-.347 9.725 4.124 1.484 4.115-1.059 6.951-4.417 9.028-1.249.773-1.943 1.556-1.55 3.224.582 2.469 2.136 3.906 4.442 4.087 4.045.318 7.92 1.309 11.605 2.804 4.864 1.973 9.253 4.707 11.685 9.744-2.44 1.669-3.263.234-4.345-.791-6.699-6.346-15.385-9.111-23.861-8.332-6.965.64-13.477 5.304-17.389 12.06-.584 1.008-1.056 2.08-1.624 3.097-.5.895-1.154 1.795-2.312 1.479-1.524-.415-1.145-1.793-1.114-3.296z"/></svg>