<svg xmlns="http://www.w3.org/2000/svg" width="384" height="320" fill="#000" xmlns:v="https://vecta.io/nano"><path d="M196.891 277.258l-134.45.051c-2.209-.002-6.098 1.342-6.215-1.996-.144-4.092 3.98-2.401 6.277-2.478 6.779-.225 13.57-.08 20.968-.08-1.443-8.578-2.849-16.414-3.079-24.351-.199-6.877-3.568-12.987-4.801-19.297-1.911-9.782-5.797-16.609-14.369-21.151-1.133-.6-1.981-1.767-2.895-2.733-.317-.335-.435-.857-.6-1.201.17-.925.787-1.279 1.455-1.183 8.528 1.23 14.173-3.501 19.319-9.28.554-.622 1.043-1.304 1.617-1.905 6.443-6.744 10.705-12.657 3.28-22.637-6.278-8.437-7.212-19.837-7.774-30.613-1.104-21.16 2.094-41.793 7.351-62.188.325-1.261.908-2.456 1.301-3.499 1.212-.435 1.927-.008 2.4.721 6.418 9.881 15.497 16.948 25.217 23.141 11.7 7.455 23.087 15.172 31.441 26.757 12.337-5.668 25.054-7.951 38.186-7.366 21.882.974 42.452 6.173 60.179 19.869 1.43 1.105 2.85 2.42 4.82.7 12.56-10.962 28.05-15.586 43.557-20.293 9.21-2.795 19.573-3.911 24.148-15.407 2.262 4.546 1.096 8.248 1.167 11.783.434 21.496-2.229 42.552-10.124 62.689-4.227 10.78-9.652 20.903-19.044 28.227-3 2.34-3.447 4.802-1.944 8.253 5.322 12.217 11.424 23.98 20.092 35.281-5.079.212-7.429-4.179-11.74-4.253 1.299 3.272-1.006 5.494-2.671 7.887-1.806 2.595-3.833 5.034-5.747 7.554-3.155 4.15-3.274 8.673-.505 12.783 1.447 2.146 3.545 1.459 5.444 1.439l17.976-.325c2.076.01 5.376-.939 5.284 2.684-.081 3.205-3.081 2.346-5.093 2.358-12.663.075-25.336-.215-37.987.188-10.582.336-21.18 1.106-31.557 3.539-2.157.505-4.404.696-6.376-.319-9.922-5.105-20.431-4.577-31.026-3.482-.992.102-1.997.088-3.482.133zm87.643-154.186c-13.539 4.673-27.364 8.797-37.406 20.029-1.444 1.616-3.029 1.66-4.729-.001-11.905-11.638-26.761-17.313-42.72-20.174-18.623-3.338-37.141-3.672-54.639 5.31-2.406 1.235-3.919.664-5.449-1.492-2.016-2.842-4.197-5.613-6.617-8.115-13.612-14.073-32.709-21.03-45.77-36.221-6.763 16.944-8.773 55.475-3.955 70.521 1.072 1.319 1.916-2.518 3.034-.127.478 1.023 1.336 1.951.852 3.199-.988 1.018-2.259-.866-3.545.855 2.531 6.66 5.291 13.532 9.908 19.491 1.454 1.876 2.315 3.585.599 5.79-5.116 6.574-10.241 13.128-16.16 19.027-2.399 2.39-5.811 3.793-7.284 6.939.791 1.704 2.282 1.78 3.44 2.35 6.062 2.983 6.496 2.809 9.219-3.446 3.262-7.49 10.017-10.759 17.99-8.391 3.482 1.034 6.702 1.727 10.056-1.144-3.72-11.846 1.935-20.943 9.505-29.202 8.017-8.747 18.128-11.779 29.533-8.618 11.453 3.174 19.127 10.439 21.501 22.554 3.961 20.218-3.327 30.015-23.755 32.495-4.878.592-9.705-1.019-14.731-.078 4.926 8.503 4.305 14.986-2.19 22.202-1.531 1.702-1.976 3.207-1.527 5.372 1.724 8.308 3.529 16.609 4.868 24.983.691 4.319 2.523 5.743 6.893 5.607l73.281-1.906c4.418-.129 7.514-1.549 8.2-7.23.942-7.792 5.568-13.845 12.82-17.393 12.817-6.272 29.17-3.079 39.02 7.423 1.082 1.154 1.751 2.901 3.897 3.142 2.709-3.237 7.85-6.857 7.063-10.224-1.33-5.681.823-8.259 4.996-10.885-5.057-9.035-9.48-17.971-13.071-27.306-1.054-2.739-.897-4.574 1.7-6.372 11.571-8.013 18.478-19.486 22.976-32.458 4.104-11.834 6.18-24.146 7.444-36.604.599-5.903 1.49-11.773.448-18.269-8.42 3.278-16.578 6.031-25.696 8.366zM85.596 234.01c-1.626 11.401.846 22.487 2.437 33.662.576 4.045 2.542 5.19 6.346 5.13l31.462-.087c1.437-.006 3.025.408 4.453-1.096l-5.192-29.625c-.65-3.607-.569-6.472 2.89-9.158 5.033-3.908 5.286-11.226.785-14.789-2.535-2.007-3.802-4.198-4.638-7.235-1.762-6.395-9.563-9.8-14.638-6.185-2.813 2.004-4.4 1.354-6.917-.112-5.699-3.318-13.182-.562-14.995 5.013-.687 2.112.988 4.3-.434 6.245-6.219 1.564-7.449 3.501-7.234 9.827.134 3.951 2.739 5.75 5.677 8.41zm190.78 32.124c-4.955-13.213-15.508-17.682-27.797-17.715-10.796-.03-18.305 5.97-20.857 15.361-1.664 6.125 1.145 10.951 7.097 11.633-.963-3.638-2.091-7.304 1.225-11.391 2.042 5.853 3.935 11.205 11.333 10.121.897-2.879-1.369-6.327 1.455-8.895 6.257 10.488 6.269 10.502 15.706 2.594 1.521-1.275 3.323-1.061 3.715.447 1.535 5.904 5.397 3.526 8.678 3.155 1.077-1.853-.025-3.177-.555-5.31zM123.67 170.165c-4.453 5.229-9.103 10.604-9.876 17.604-.904 8.187 1.378 12.215 8.235 11.657-6.524-12.915-.874-28.121 12.21-32.866 15.225-5.52 30.494 4.534 31.938 21.03 1.361 15.545-5.778 22.762-21.317 21.764-6.34-.407-12.059-2.887-18.113-5.339 1.21 4.176 3.684 5.737 7.411 6.263 6.322.893 12.668 1.125 18.907.16 6.08-.94 12.046-3.483 14.344-9.575 3.807-10.093 2.569-20.133-3.911-28.9-7.516-10.17-25.724-15.247-39.827-1.798zm29.65 11.603c-3.062 2.504-3.219 5.363-.417 7.964 2.08 1.93 4.35.994 6.048-.939 1.325-1.508 1.317-3.385.46-5.098-1.107-2.213-3.034-2.86-6.09-1.927zm-22.647 16.824c.435 1.92 1.458 2.588 3.13 1.279.919-.719.911-1.757.085-2.585-1.354-1.359-2.321-.663-3.215 1.306zm118.813-37.668l3.965 5.557c1.072 1.39 1.34 2.851-.053 3.948-1.744 1.373-2.837-.256-3.529-1.469-2.453-4.304-5.207-8.239-10.627-8.792-2.709-.276-5.47-.048-8.241-.048 1.761-5.769 10.622-5.46 18.486.804zm-119.181-14.056c-1.134.992-1.956 1.884-3.303 1.454-.157-5.995 6.464-10.642 14.68-10.305 5.427.223 8.779 3.257 8.46 8.303-6.701-4.572-13.354-6.686-19.837.548zm90.484 36.817c14.547-9.671 32.444-6.153 41.855 8.053 5.055 7.631 6.98 16.233 6.488 25.216-.562 10.246-9.996 18.781-20.257 19.29-11.856.588-22.361-3.23-31.845-9.865-11.245-7.867-12.663-20.077-4.326-33.478 2.119-3.406 4.475-6.627 8.085-9.217zm-5.547 12.083c-.714 1.504-1.471 2.989-2.134 4.514-4.159 9.571-3.183 15.461 4.963 22.057 8.786 7.115 19.131 10.781 30.55 10.266 6.812-.308 11.706-4.062 15.122-9.996 3.127-5.43 1.954-10.989.974-16.538-2.34-13.252-10.456-21.689-22.802-23.941-10.608-1.935-20.165 2.778-26.672 13.638zm-18.736 39.526c-5.074 10.645-18.857 7.783-23.239-.384-2.93-5.462-3.244-11.249-4.276-18.642 6.692 5.749 12.865 7.338 19.53 1.24 2.616 7.486 8.233 6.806 14.301 6.234-3.47 3.324-4.863 7.242-6.317 11.552zm-17.231-28.185c3.662-5.542 15.712-5.013 18.376.513 1.602 3.322.114 5.78-2.811 7.469-6.164 3.558-13.588-.08-15.566-7.982zm-67.61 19.024c2.978 3.557 5.822 6.763 8.279 10.243 1.909 2.704 1.581 5.725-.309 8.416-2.303 3.278-5.612 4.904-9.509 4.114-3.311-.671-6.438-.701-9.793-.324-4.257.478-7.871-1.401-9.727-5.5-1.725-3.809-.727-7.076 2.513-9.78 1.256-1.048 2.31-2.394 3.267-3.738 4.165-5.854 8.317-6.899 15.28-3.431zm5.353-6.147c-5.067 4.776-5.809 4.82-12.119.549-2.546 2.047-5.451 3.53-8.941 2.404-.694 6.362-3.714 9.997-7.494 8.828-3.686-1.139-4.942-4.305-4.382-7.971.741-4.846 3.657-6.479 9.347-5.305.357-3.404.043-7.358 4.136-8.798 3.534-1.243 5.466 1.457 7.764 4.242 1.759-3.003 3.978-5.56 7.568-4.053 4.073 1.71 4.201 5.573 4.16 9.717-.056.401-.038.385-.038.385zm-25.393 6.067c.225-2.139-.091-4.294-2.667-4.268-1.912.02-1.934 2.064-1.562 3.49.562 2.154 1.834 3.126 4.229.778z"/><path d="M116.994 220.012c2.738-2.431 5.457-3.086 8.039.21s2.317 8.535-.511 10.829c-1.705 1.383-3.619 1.629-5.568.727-2.474-1.146-3.696-3.194-3.745-5.926-.034-1.89.869-3.496 1.694-5.513l.091-.327zm125.305-34.825c14.963 4.504 21.98 16.017 18.762 30.826-1.055 4.857-3.776 9.039-8.754 10.783-11.431 4.007-22.233 2.479-32.256-4.347-5.095-3.47-6.826-8.572-6.119-14.356 1.799-14.726 15.33-25.677 28.367-22.907zm-14.069 20.381c3.111-1.231 5.357-3.059 3.636-6.745-.906-1.941-2.756-2.896-4.982-2.565-2.027.302-3.421 1.566-3.606 3.585-.278 3.043 1.119 5.101 4.951 5.724z"/></svg>