<svg xmlns="http://www.w3.org/2000/svg" width="384" height="320" fill="#000" xmlns:v="https://vecta.io/nano"><path d="M132.001 278.003l-68.986.03c-1.499 0-3.003-.004-4.496-.116-1.518-.115-3.226-.309-3.314-2.283-.1-2.253 1.645-2.669 3.415-2.689l17.495-.092 6.666-.001-3.083-27.742c-.445-4.592-.367-9.007-3.804-12.968-2.604-3.001-2.826-7.489-2.871-11.445-.041-3.567-1.449-5.314-4.542-6.79-4.499-2.147-8.3-5.381-11.594-9.101.437-.566.663-1.057.823-1.036 12.327 1.608 18.639-6.894 25.087-15.016 6.432-8.102 6.248-8.107 1.443-16.963-4.997-9.208-7.732-19.188-8.45-29.577-1.566-22.644 1.668-44.81 7.483-66.652.276-1.036.263-2.41 1.7-2.833 1.46-.051 1.954 1.204 2.548 2.095 6.737 10.1 16.23 17.087 26.375 23.285 10.296 6.29 19.916 13.364 27.637 22.75 1.549 1.883 3.001 2.612 5.553 1.551 23.448-9.751 46.918-7.36 70.248.407 9.033 3.007 17.632 7.078 24.996 13.323 2.111 1.79 3.885 1.772 6.151-.043 11.819-9.467 25.726-14.47 40.104-18.449 4.648-1.286 9.201-2.912 13.807-4.352 5.754-1.799 10.068-5.378 12.271-10.93 2.418 1.096 2.297 2.508 2.29 3.809-.112 22.378-1.1 44.69-8.831 65.993-4.457 12.284-10.265 23.973-20.912 32.291-3.605 2.817-3.198 5.748-1.591 9.21 5.116 11.028 10.308 22.01 17.767 31.725.492.64 1.129 1.244.505 2.494-3.929-.489-6.575-4.238-11.172-4.672 1.825 2.082.902 3.717-.285 5.377-2.416 3.381-4.336 7.128-7.357 10.064-3.088 2.999-3.65 6.232-1.939 10.327 1.163 2.783 2.621 3.846 5.547 3.772 6.829-.174 13.663-.131 20.495-.141 1.782-.003 4.023-.415 3.891 2.451-.11 2.401-2.115 2.212-3.747 2.222l-36.947.087c-7.176-.089-14.215.798-21.256 1.898-5.023.785-10.212.054-15.139 1.971-1.636.637-3.818.307-5.308-.803-6.17-4.599-13.503-3.488-20.23-3.502-25.98-.051-51.962.648-78.442 1.065zm.271-21.641c.657 3.428 1.57 6.832 1.908 10.292.456 4.679 2.449 6.398 7.379 6.284l74.705-1.149c3.898-.06 6.175-1.303 6.624-6.086.801-8.532 4.876-15.421 13.047-19.334 9.887-4.736 19.602-3.988 29.382.371 5.595 2.493 9.608 6.84 13.587 11.731l4.547-5.503c1.478-1.795 4.277-4.111 3.494-5.736-2.629-5.454.581-7.959 4.122-10.34.005-2.281-1.253-3.703-2.096-5.301-3.81-7.219-7.278-14.593-10.327-22.171-1.005-2.499-1.03-4.516 1.535-5.98 8.168-4.665 12.873-12.359 17.533-20.081 8.767-14.526 10.837-30.9 13.027-47.247.921-6.867 1.334-13.719.71-21.057-6.853 2.89-13.352 4.887-19.871 6.836-15.505 4.636-31.053 9.2-43.021 21.093-2.178 2.164-4.352 1.835-6.494-.37-6.899-7.103-15.479-11.548-24.683-14.697-24.178-8.269-48.395-10.777-72.34.845-2.723 1.322-3.905.359-5.211-1.723-4.132-6.59-9.622-11.916-15.928-16.363-7.072-4.987-14.253-9.826-21.476-14.592-5.648-3.727-10.332-8.627-15.527-13.279-4.469 13.949-5.297 27.676-6.215 41.485-1.277 19.223 1.504 37.163 13.257 52.975 1.413 1.9 1.607 3.484.082 5.357-2.835 3.48-5.693 6.952-8.339 10.575-4.216 5.774-9.827 10.188-15.239 14.895 7.954 6.4 8.745 6.264 12.656-1.58 3.611-7.243 10.509-10.287 18.436-7.576 3.636 1.243 6.649 1.25 9.722-1.293-1.417-6.563-1.071-12.8 2.526-18.781 6.372-10.597 14.333-19.023 27.465-19.98 17.911-1.306 32.195 13.497 31.858 32.587-.258 14.628-7.425 22.144-21.959 23.993-5.609.714-11.136-.049-17.128-.149 4.269 8.514 3.209 15.735-3.032 22.012-1.504 1.512-1.813 3.088-1.446 4.975l2.73 14.061zm-40.156 16.424l32.487.193c4.785.116 5.625-1.784 4.781-6.064-1.704-8.644-3.023-17.364-4.494-26.053-.515-3.042-.439-5.391 2.719-7.64 5.838-4.158 5.614-11.905-.169-15.876-2.423-1.664-2.817-3.887-3.495-6.269-1.986-6.982-9.525-9.96-15.359-5.836-2.034 1.438-3.249 1.543-5.159.027-3.687-2.927-7.641-2.582-11.718-.552-4.802 2.391-4.496 6.834-4.383 11.259-3.907.254-7.159 1.276-7.843 5.261-.723 4.215-.671 8.413 3.712 11 1.496.883 1.792 2.123 1.688 3.799-.656 10.533.806 20.9 2.836 31.187.422 2.137.542 4.839 4.397 5.564zm184.983-5.338c-4.352-14.428-16.213-19.507-29.264-18.904-11.327.523-18.589 7.168-20.306 16.65-1.07 5.91 2.046 10.218 7.685 10.47-1.336-3.563-2.575-7.122 1.237-11.04 1.259 4.051 2.1 7.74 5.987 9.25 3.863 1.499 5.068.746 5.234-3.323.068-1.677-.742-3.661 1.158-4.88.287.089.523.089.579.189 5.71 10.22 6.46 10.344 15.121 2.503 1.941-1.758 3.318-.915 4.315 1.038.487.953-.502 2.4 1.36 3.281 2.128-1.589 8.391 3.537 6.894-5.234zm-108.441-84.481c-1.764-7.043-5.045-12.974-11.667-16.669-19.502-10.881-37.163 2.528-42.591 20.535-2.364 7.842.761 12.341 7.166 13.112-4.558-14.191-.173-26.973 10.957-31.937 11.706-5.221 23.552-1.689 30.082 8.754 3.639 5.818 4.503 12.151 3.817 18.714-.714 6.828-4.514 11.765-12.107 15.316 9.208-1.777 13.127-5.557 14.625-12.662 1.014-4.811 1.118-9.578-.282-15.163zm-15.531-.18c-2.583 2.404-2.416 4.886-.138 7.354 1.557 1.686 3.42 2.015 5.338.681 2.155-1.499 3.032-3.571 1.777-6.031-1.352-2.65-3.307-4.178-6.977-2.004zm-25.331 24.233c.484 1.692 1.421 3.237 3.186 3.455 5.893.729 11.766 2.293 17.802.836-7.363-.002-13.816-3.815-20.988-4.291zm129.69-40.096l3.965 5.557c1.072 1.39 1.34 2.851-.053 3.948-1.744 1.373-2.838-.256-3.529-1.469-2.453-4.304-5.207-8.239-10.627-8.792-2.709-.276-5.47-.048-8.241-.048 1.761-5.769 10.622-5.46 18.486.804zm-119.181-14.056c-1.134.992-1.956 1.884-3.303 1.454-.157-5.995 6.464-10.642 14.68-10.305 5.427.223 8.779 3.257 8.46 8.303-6.701-4.572-13.354-6.686-19.837.548zm126.08 77.463c-4.742 5.15-10.466 6.905-16.904 6.727-10.748-.298-20.647-3.381-29.435-9.59-9.756-6.894-12.172-14.803-8.309-26.084 5.74-16.763 20.068-25.484 35.898-21.816 8.264 1.915 14.407 6.796 18.516 14.066 5.367 9.496 10.088 26.379.233 36.697zm-38.956-2.888c7.843 4.077 16.116 6.021 25.005 5.401 9.894-.69 17.479-9.548 16.253-19.379-.66-5.29-1.904-10.46-4.016-15.388-5.156-12.033-18.17-18.143-30.882-14.869-10.246 2.638-15.095 10.229-18.595 19.199s-2.346 13.445 5.365 20.249l6.87 4.786zm-54.787.657l-1.179-10.204c6.772 4.831 12.935 5.696 19.484.297 2.663 7.144 7.559 8.074 14.17 5.519-4.567 4.637-4.582 10.735-7.938 15.157-4.263 5.618-13.739 5.71-19.021.147-2.815-2.965-4.535-6.545-5.516-10.916zm15.554-11.913c-3.814-2.206-8.091-4.441-6.083-9.148 1.899-4.452 6.661-3.636 10.564-2.77 3.83.85 8.366 1.618 8.069 7.007-.221 4.003-5.799 6.463-11.254 5.391-.321-.063-.623-.223-1.296-.479zm-71.224 12.763c.3 2.052 1.175 3.763 2.776 5.145 3.096 2.673 4.34 5.906 2.368 9.771-2.054 4.024-5.641 5.76-9.929 5.207-3.486-.45-6.815-.575-10.332-.129-4.169.529-7.491-1.688-9.291-5.434-1.872-3.894-1.047-7.417 2.493-10.202 1.027-.808 1.847-1.915 2.64-2.976 5.829-7.801 11.286-8.313 19.041-1.533.26.189.235.151.235.151zm2.018-8.941c-5.124 5.057-5.991 5.113-11.836.58-2.848 1.457-5.638 4.228-9.928 1.524-1.141-1.43-1.731-2.39-2.321-3.349.214-.622.583-1.235.616-1.867.161-3.098.621-6.112 4.065-7.192 3.581-1.122 5.337 1.691 7.562 4.288 1.826-2.781 4.074-5.342 7.583-3.972 4.048 1.58 4.22 5.468 4.336 9.563-.066.415-.076.425-.076.425z"/><path d="M117.003 219.994c2.599-2.123 5.244-2.925 7.807-.033 2.383 2.688 2.558 8.313.285 10.523-3.577 3.478-6.589 1.303-9.821-1.335-.303-.198-.278-.161-.264-.144-.141-2.903.418-5.673 1.867-8.638.11-.358.121-.367.125-.373zm-24.446-1.363c.937 1.091 1.527 2.051 2.347 3.269.269.756.277 1.259.353 1.751.532 3.479-.184 6.292-3.889 7.63-2.206.797-4.169.889-5.851-1.151-2.479-3.007-2.325-6.157-.487-9.278 1.635-2.776 4.016-3.928 7.528-2.221zm-1.456 3.982c-.942-1.261-2.104-1.795-3.22-.385-1.074 1.357-.379 2.823.3 4.166.408.808 1.157 1.355 2.004 1.016 2.072-.829 1.693-2.515.915-4.797zm133.788 4.364l-6.694-4.887c-5.761-9.371-4.171-17.826 1.312-25.8 5.694-8.282 13.916-12.231 23.751-10.374 9.314 1.759 16.096 7.778 18.197 17.2 3.554 15.935-1.723 26.507-20.005 27.016-5.784.161-11.114-1.722-16.56-3.155zm7.267-28.012c-2.162-2.19-4.655-2.713-7.04-.672-1.84 1.574-1.929 3.749-.502 5.817 1.2 1.738 2.734 3.243 4.936 2.104 2.622-1.356 4.679-3.29 2.606-7.249zm13.998 22.465c-1.609-1.568-2.585-.838-3.212.923-.37 1.041-.224 2.16.988 2.313 1.821.23 2.721-.793 2.224-3.235z"/></svg>