<svg xmlns="http://www.w3.org/2000/svg" width="384" height="320" fill="#000" xmlns:v="https://vecta.io/nano"><path d="M199.855 278.012c-4.814.094-9.163.462-13.473.204-7.59-.454-14.743.297-21.582 4.145-3.551 1.997-7.701 3.263-12.007 1.476-.687-.285-1.708-.26-2.399.034-6.526 2.769-12.061.521-17.2-3.4-2.112-1.611-4.335-2.18-6.952-2.173l-64.948.061c-8.123.023-8 .079-11.027-7.503-3.986-9.982-3.896-19.808.682-29.525 3.044-6.461 8.012-11.12 15.237-11.336 7.201-.215 13.115 3.613 17.04 9.65 4.801 7.385 9.145 15.067 13.689 22.619.505.84.861 1.839 2.715 2.103 5.778-9.679 15.407-15.041 25.797-19.251-.991-2.727-3.079-3.078-4.754-4.039-7.158-4.105-13.775-8.731-20.185-14.158-7.06-5.977-11.847-12.61-15.388-20.694-.93-2.125-2.891-1.895-4.696-2.074-4.342-.431-8.81.006-14.16-1.598 4.128-4.057 8.8-5.713 12.087-9.121 7.409-7.683 11.717-17.2 16.077-26.695.664-1.447-.218-2.488-1.249-3.474-10.971-10.505-16.354-23.981-20.34-38.219-5.867-20.956-4.742-42.485-5.347-63.875-.04-1.41.077-2.754 1.465-3.436 1.476-.726 2.564.284 3.525 1.198 9.056 8.617 20.609 12.45 31.85 17.039 11.481 4.687 23.212 9.066 32.852 17.307 1.523 1.302 3.006 1.973 4.952.819 15.039-8.92 31.601-12.482 49.832-13.599-8.705-4.075-17.442-2.341-26.234-4.39 2.785-3.139 5.986-4.011 8.723-4.796 15.545-4.461 30.022-3.34 41.637 9.598 1.735 1.933 3.791 3.216 6.286 3.835 6.167 1.53 12.081 3.769 17.738 6.63 2.24 1.133 3.692 1.117 5.563-.95 9.984-11.026 22.085-19.011 35.776-24.82 6.26-2.656 12.143-6.2 18.201-9.334 4.759-2.462 7.704-6.548 9.745-12.246 3.258 5.141 2.985 10.078 3.844 14.686 1.983 10.642 2.579 21.481 2.67 32.23.162 19.08-2.181 37.844-11.537 55.023-.395.725-.939 1.375-1.451 2.03-6.678 8.53-6.765 8.592-.152 17.434 6.585 8.806 13.348 17.477 23.418 22.726.729.38 1.238 1.116.877 2.468-4.581 1.812-9.024-3.072-13.85-.69.703 7.667-3.346 13.612-7.393 19.744-7.95 12.046-19.405 19.883-31.763 27.342 4.593 5.585 8.941 11.163 14.367 15.827 1.833 1.575 3.137 1.549 5.204.164 4.678-3.136 9.391-6.307 15.515-6.085 15.655.568 23.231 16.302 20.204 28.433-.49 1.966-1.651 2.525-3.258 1.988-1.584-.529-3.868-.873-3.291-3.429 1.561-6.915-2.732-12.169-5.7-17.339-3.421-5.961-16.758-4.112-20.031 2.103-.542 1.03-.454 1.875.102 2.79.432.711 1.077 1.384 1.239 2.155 1.631 7.774 6.138 11.075 14.095 9.417 1.691-.352 3.075.595 3.122 2.401.066 2.583-1.932 2.726-3.855 2.729l-39.493.034c-3.356-.009-6.587.1-9.678 1.767-2.043 1.103-4.391 1.319-6.785 1.341-5.812.055-11.64-.376-17.435.729-1.714.327-3.828.205-5.38-.521-10.513-4.926-21.537-4.505-33.132-3.509zM210.412 84.04c-3.759-5.61-11.761-9.716-18.206-9.29 5.97 2.854 11.702 6.103 16.514 10.924-1.284 1.401-2.309 1.44-3.261 1.216-9.966-2.336-19.908-1.351-29.763.487-11.831 2.206-23.319 5.578-33.047 13.07-2.417 1.861-3.722 1.003-5.499-.593-9.811-8.815-21.351-14.568-33.636-19.078-8.416-3.09-17.102-5.551-24.696-10.641-4.574-3.066-5.425-2.55-5.859 3.053-1.05 13.537.251 27.043 2.485 40.285 3.051 18.079 9.043 35.179 23.509 47.838 2.139 1.872 2.211 3.641 1.205 6.159-4.437 11.105-9.864 21.601-18.395 30.77 1.954.32 3.475.343 4.823.837 2.493.914 6.376 2.361 5.853 4.629-1.181 5.12 2.211 7.752 4.224 11.184 1.963 3.346 4.714 7.784 7 8.962 5.051 2.603 9.16 6.369 13.964 9.163 9.503 5.529 18.914 9.787 30.57 8.114 7.303-1.049 14.315 1.614 19.961 7.18 6.756 6.66 8.313 14.786 7.534 24.15 6.938.583 13.605 1.653 20.441.822 7.292-.887 14.652-1.161 21.927-.074 3.777.564 4.852-.787 4.701-4.212-.534-12.063 5.445-19.582 16.264-24.255 4.311-1.862 9.474-.466 12.958-2.922 6.472-4.561 13.867-7.134 20.578-11.101 8.615-5.092 16.292-11.181 23.556-18.108 4.916-4.688 7.8-10.216 10.707-15.967.345-.684.619-1.977.26-2.356-5.019-5.293-.886-8.014 3.497-10.869-7.728-7.274-13.241-15.745-18.47-24.463-1.703-2.84-1.95-4.528.55-7.276 8.44-9.275 13.297-20.339 15.845-32.678 3.323-16.096 1.378-32.185.814-48.271-.138-3.927.042-8.277-2.471-12.167-7.665 4.613-15.631 7.979-23.434 11.687-13.925 6.616-27.238 14.099-36.472 27.072-1.37 1.925-3.007 2.032-5.204.882-4.564-2.388-9.273-4.518-14.005-6.56-1.939-.836-4.228-2.194-6.201-.957-2.625 1.647-3.922.181-5.504-1.361-1.669-1.626-3.41-3.178-5.617-5.286zm-41.12 176.219c-3.201-8.44-10.455-13.679-19.399-13.965-10.934-.349-21.037 3.076-30.574 7.788-7.661 3.784-14.367 9.048-15.2 19.659 8.958-1.28 18.02 2.631 26.763-2.976 3.955 3.048 7.023 8.729 13.537 8.185 8.178-.683 6.664-7.891 7.901-13.337 5.558 3.654 2.438 9.076 3.502 13.581 9.35-2.408 7.77-10.267 8.333-17.433 3.907 2.939 3.71 6.553 5.107 10.506 1.729-4.426 1.992-7.825.03-12.008zm59.241 1.839c-2.297 8.015-.465 12.227 6.011 13.812-.658-3.834-2.082-7.812 1.795-11.533 2.999 10.6 4.107 11.722 10.663 11.359-.353-7.268-.353-7.268 2.27-9.913.314.63.705 1.152.844 1.735 2.195 9.14 5.436 10.518 13.585 5.601 1.955-1.18 3.605-1.294 5.988-.858 8.142 1.493 16.362.711 24.595.078.404-6.196-2.451-10.026-6.613-13.149-11.546-8.665-24.853-11.58-38.881-10.83-8.765.47-16.7 3.473-20.257 13.698zM79.59 244.913c-.395-.535-.76-1.095-1.191-1.6-3.267-3.826-6.575-8.026-12.324-6.942-5.524 1.042-8.466 5.081-10.446 10.26-3.049 7.973-2.025 15.509.953 23.19 1.07 2.759 2.405 3.895 5.399 3.855l29.916-.034c1.356-.006 3.046.586 4.075-1.258-5.153-9.03-10.112-18.22-16.382-27.471zm190.933-1.059c-1.746-2.589-3.502-5.121-6.825-.901 2.402.904 4.319 2.196 6.825.901zm2.239-57.97c-15.434 8.654-30.604 10.746-45.902.525-5.705-3.811-8.445-9.286-9.004-15.873-.233-2.747-1.074-4.391-3.529-5.939-5.648-3.56-6.678-12.191-2.23-15.931 1.825 1.108.738 2.583.486 3.941-.545 2.937.604 5.301 2.794 7.053 2.384 1.907 4.055-.381 5.677-1.526 10.339-7.293 20.647-14.508 32.982-18.317 7.209-2.226 13.397.207 19.732 2.793.29.118.731.431.721.635-.309 6.426 5.115 10.357 6.895 15.991 3.498 11.076.588 19.552-8.62 26.648zm-49.893-9.473c3.15 5.908 7.823 9.766 14.575 11.011-7.146-6.557-12.543-13.83-11.669-24.378-3.4.529-4.563 2.067-4.577 4.823-.014 2.709.713 5.25 1.671 8.545zm19.435-13.62c2.197-2.628 2.058-5.08-.644-7.24-2.192-1.753-4.004-.645-5.618.977-1.978 1.988-2.611 4.345-.718 6.61 1.918 2.295 4.249 2.14 6.979-.347zm22.374 22.248c-.245.275-1.008.506-.092.883.121.05.326-.046.469-.119 5.78-2.951 10.267-7.139 12.776-13.256 1.854-4.521.861-11.09-2.29-14.731 3.379 12.294.538 19.622-10.864 27.223zm-90.055 3.542c-13.109 10.776-33.344 12.35-47.687 3.885-7.249-4.278-11.741-16.296-9.905-26.13.784-4.197 3.25-7.967 2.636-12.575-.247-1.857 2.15-2.737 3.741-3.636 10.026-5.66 20.264-3.944 30.473-.727 7.014 2.21 13.44 5.76 19.683 9.57 2.746 1.676 5.692 3.148 8.238.96 2.363-2.03 3.646-5.196 2.092-8.605-.549-1.205-1.35-2.392.033-3.656 2.282-.299 2.624 1.519 3.134 3.048 1.046 3.139 1.153 6.592-.479 9.252-3.448 5.617-5 11.502-5.454 18.039-.286 4.116-2.619 7.817-6.504 10.575zm-36.084.553c-14.286-8.565-14.621-21.017-8.912-35.356-8.083 4.277-11.528 15.868-8.644 24.871 3.83 11.959 16.628 16.434 30.959 14.666-4.998-1.072-9.128-1.674-13.403-4.18zm25.72-28.914c-.438-.232-.86-.502-1.316-.688-1.512-.615-3.303-1.694-4.323.367-1.013 2.048-.821 4.287 1.297 5.735 1.93 1.32 3.857.679 5.449-.702 1.828-1.585 1.512-3.123-1.107-4.712zM285 137.645c-1.823 1.78-5.121 1.597-7.682.65-11.577-4.285-25.424-6.237-43.948-4.162-2.362.265-5.125-.013-7.37-1.011 2.584-3.037 11.837-3.114 19.88-3.122 18.429-.017 35.034 3.262 39.12 7.645zm-123.783-11.949c2.136 1.303 4.218 2.358 2.85 3.527-1.086.929-3.216.672-4.906-.131-11.657-5.538-21.967-5.223-31.735-2.06-1.468.475-3.194.68-5.198-.095-1.11-7.803 19.641-8.631 38.989-1.241zm35.154 48.099c3.263-.047 6.16-.517 8.838.65 1.973.859 3.946 1.894 4.086 4.54.132 2.501-.546 4.627-2.658 6.103-1.883 1.317-5.278 1.605-3.73 5.237 1.438 3.374 4.557 4.972 7.732 4.146 9.045-2.353 12.472 4.055 16.45 9.769.84 1.207 1.676 2.738.282 4.082-1.262 1.217-2.474 0-3.647-.472-12.65-5.088-25.158-2.935-37.588.844-3.329 1.012-3.413 5.152-6.147 7.247-.519-.425-1.315-.742-1.417-1.21-1.148-5.308 4.438-15.307 9.551-17.146 3.002-1.08 5.931-2.345 8.329-4.445s3.261-4.327-.506-6.113c-1.185-.561-2.44-1.235-3.29-2.189-1.72-1.931-4.008-3.711-2.936-6.917 1.014-3.033 3.412-3.84 6.651-4.126z"/></svg>