<svg xmlns="http://www.w3.org/2000/svg" width="384" height="320" fill="#000" xmlns:v="https://vecta.io/nano"><path d="M82.125 157.167c8.394-5.296 13.58-13.168 19.525-20.317 1.002-1.205.925-2.329-.04-3.589-6.794-8.865-8.606-19.484-9.529-30.074-2.298-26.368 3.519-51.628 11.703-76.462.093-.281.435-.48.664-.711.956-.283 1.66.157 2.1.907 7.765 13.254 20.74 20.882 32.269 30.112 7.513 6.016 15.195 11.95 20.594 20.165.946 1.439 1.871 2.662 4.014 1.999 18.089-5.594 36.369-5.638 54.768-1.728.454.097.947.012 2.734.012-7.636-5.784-14.635-10.421-22.213-14.543 7.951-2.069 15.614-.956 22.627 2.242 8.869 4.044 17.017 9.352 20.064 19.633.26.877.973 1.873 1.756 2.302 5.7 3.13 11.396 6.233 16.126 10.816 1.229 1.19 2.537.533 3.586-.375 13.232-11.448 29.672-15.292 45.974-19.499 4.185-1.08 8.348-2.28 12.442-3.661 4.148-1.399 8.042-3.263 10.146-7.536.48-.976 1.082-2.155 2.653-1.853 1.42.852 1.064 2.312 1.004 3.568-1.084 22.675-2.934 45.268-11.553 66.585-4.969 12.29-11.49 23.724-22.799 31.493-2.623 1.802-2.091 3.6-1.183 5.975 4.785 12.512 9.981 24.747 20.423 33.847.411.358.441 1.153.925 2.536-5.318-.875-9.132-4.403-14.501-4.8 1.406 2.459.653 4.264-.701 6.45-8.224 13.283-20.89 20.561-34.7 26.404-3.006 1.272-6.327 1.877-9.683 4.564 8.978 8.815 20.292 15.274 23.891 28.366 4.882-2.499 8.661-4.897 12.928-6.31 9.732-3.223 19.617-.018 24.554 8.163.931 1.543 2.33 3.387.411 4.891-1.723 1.351-3.476.147-4.885-1.151-2.902-2.672-5.04-6.453-9.359-7.123-5.267-.816-10.135.331-14.927 3.898 5.73 2.272 11.233.905 16.571 1.346 1.625.134 4.185-1.068 4.335 1.81.153 2.929-2.388 2.682-4.36 2.69l-40.496.094c-2.544-.003-4.929.196-7.162 1.639-4.352 2.814-9.634 1.922-14.109 1.804-7.305-.193-14.704 1.572-22.264-2.454-5.429-2.891-12.958-2.594-19.598-1.952-16.798 1.623-33.628.845-50.44.949l-96.47.039c-1.498 0-3.002-.015-4.493-.146-1.28-.112-2.257-.758-2.195-2.202.05-1.152.871-1.907 1.937-1.923 3.308-.05 4.718-2.607 6.736-4.572 6.883-6.699 15.086-7.826 24.09-5.256 2.626.75 5.238 2.318 8.401.811-.139-.632-.077-1.402-.431-1.808-8.292-9.526-11.881-21.1-14.082-33.148-1.132-6.199-2.405-12.451-2.214-18.825.085-2.825-.984-5.219-2.464-7.463-5.494-8.327-4.131-16.025 2.028-23.319.644-.763 1.337-1.484 1.983-2.246 4.94-5.839 4.468-7.679-2.59-10.124-1.729-.598-3.439-1.263-5.198-1.756-1.53-.428-3.411.158-5.04-2.575 5.52-1.546 10.44-4.023 15.716-6.61zm150.073-71.712c-1.219 1.191-2.48.395-3.733.081-9.507-2.379-18.835-5.522-28.81-5.7-12.698-.227-25.341-.308-37.112 5.467-2.716 1.332-3.858.068-5.09-2.092-2.907-5.096-6.712-9.444-10.989-13.503-12.666-12.022-28.679-20.006-40.236-34.27-6.7 23.195-11.674 45.817-8.85 69.412 1.096 9.16 3.261 18.211 8.404 25.926 2.859 4.288 2.359 7.121-.706 10.508-6.969 7.699-12.711 16.58-21.899 22.774 7.491.119 14.433 2.511 21.675 3.035.307.023.631-.195.947-.3 8.604-2.851 12.581-1.274 18.549 5.651 8.177 9.489 13.161 18.891 5.649 31.415-3.093 5.156 1.79 15.152 7.203 17.77 2.543 1.23 5.034 2.568 7.525 3.902 1.164.624 2.478 1.233 1.77 3.016-1.525 1.187-3.19.6-4.791.301-1.46-.273-2.804-.185-3.322 1.363-1.305 3.897-3.881 7.426-3.437 11.841 1.351 13.425-4.726 23.091-15.506 30.459 2.839 1.435 5.863 1.181 8.83 1.183l64.439-.089c8.954-.102 17.879-1.84 26.867-.125 2.383.455 3.181-1.252 3.064-3.435-.611-11.368 4.744-18.989 14.799-23.738 1.228-.58 3.379-1.046 2.717-2.982-1.409-4.116 1.509-3.934 3.93-4.425 11.596-2.352 23.033-5.099 33.615-10.767 2.249-1.205 2.836-4.443 4.393-4.493 8.099-.263 11.45-6.603 15.988-11.489 1.79-1.928 3.042-3.835 1.411-6.637-1.305-2.24.189-3.672 2.07-4.841 1.503-.934 3.548-1.028 4.748-3.15-6.357-8.183-9.499-18.054-13.358-27.594-.81-2.004-1.432-3.766 1.091-5.044 8.519-4.317 13.944-11.592 18.751-19.519 10.669-17.595 13.883-37.263 15.815-57.226.348-3.598 1.837-7.352.37-11.427-6.674 3.092-13.556 4.329-20.3 6.062-16.358 4.202-32.567 8.729-45.057 21.178-2.003 1.996-3.776 1.215-5.642-.449-3.106-2.769-6.415-5.31-9.547-8.051-2.429-2.126-4.923-3.085-7.964-.663-5.226-9.224-7.979-19.985-19.508-24.391 3.107 5.91 8.531 9.142 11.236 15.058zM90.72 171.848c-6.259 5.022-6.184 10.893.177 13.821 2.58-10.555 6.545-11.621 15.45-1.715-.059-2.36-1.142-5.097 1.539-5.863 2.765-.79 4.668 1.051 6.075 3.35.961 1.568 2.065 2.755 4.088 3.323 6.005 1.686 7.646 4.146 6.303 8.598-2.265 7.504-2.324 7.534-9.744 5.47-.155-.043-.432.352-.659.549.048 1.137.883 1.789 1.663 2.35 3.891 2.798 5.254 6.479 3.369 10.89-1.919 4.492-5.232 7.232-10.514 6.755-3.005-.271-5.949.301-8.928.667-6.571.806-13.883-7.096-10.99-12.397 3.224-5.908 6.211-12.768 14.328-14.084 2.823-.458 3.408-2.112 1.72-4.965-3.939 3.567-10.016 3.895-11.564 9.929-.251.977-1.448 1.818-2.372 2.498-3.642 2.68-7.035 1.295-8.187-3.064-1.274-4.821-.569-8.857 5.014-11.429-3.976-2.935-6.551-3.311-8.58.513-2.407 4.538-2.397 9.251.799 13.17 3.924 4.812 4.452 10.017 4.167 15.889-.304 6.286.24 12.623 2.864 18.825 1.235-1.25-.581-2.689 1.199-3.416.962 1.917 3.044 4.483 1.692 5.828-2.848 2.832-1.193 5.269-.245 7.619 1.671 4.141 3.449 8.285 6.528 11.703 5.94 6.594 13.26 10.719 22.086 8.798 8.478-1.846 11.058-9.342 12.378-17.036.301-1.755.149-3.666-.173-5.436l-6.361-33.298c-1.011-4.547-.426-7.831 2.872-11.25 4.429-4.592 3.319-11.587-2.063-15.002-2.294-1.455-3.392-3.209-4.103-5.832-1.837-6.775-8.569-9.069-14.224-4.979-1.702 1.231-3.058 1.825-4.872.463-3.046-2.286-6.482-2.323-10.732-1.242zm179.244 99.877c2.966 3.604 6.13 1.576 9.106.653.747-1.518.181-2.601-.181-3.691-4.5-13.566-16.095-19.972-29.066-20.19-11.5-.194-19.708 6.398-22.084 16.494-1.254 5.327 1.113 9.475 6.238 10.933-.163-8.724-.163-8.724 2.527-10.79 2.741 10.091 3.631 11.03 10.422 10.857.752-2.962-1.729-6.833 2.386-9.446.365 1.188.653 1.941.827 2.72 1.691 7.583 5.779 9.311 12.2 5.072 1.379-.911 2.576-2.095 3.879-3.125 1.09-.861 2.215-1.649 3.746.513zM93.582 213.019c1.47 2.327 3.83 1.66 5.884 1.571 2.817-.122 5.598-.375 8.43.038 2.808.409 5.237-.248 6.654-3.14 2.892-5.901-4.509-6.958-5.231-11.227-.27-1.594-1.953-2.206-3.631-1.697-2.214.672-4.48 1.261-6.579 2.206-4.757 2.144-7.085 6.959-5.526 12.249zm2.233 58.445c-2.847.8-5.648.14-8.37-.515-4.378-1.053-8.721-2.227-13.276-1.664-2.737.339-5.462.83-7.096 4.137h43.753c-6.56-2.898-10.04-3.318-15.01-1.958zm-6.884-74.693c2.267-1.883 2.407-3.962.782-6.337-2.745.48-3.814 2.286-4.006 4.508-.136 1.575 1.045 2.278 3.224 1.829zm22.786-1.606c2.305-1.828 1.077-3.57.066-5.692-2.876 1.872-3.204 3.583-.066 5.692zm5.581-4.272c.059 1.067-.687 2.328.941 3.216 1.528-1.281 3.146-2.718 1.648-4.823-1.069-1.501-1.927-.154-2.59 1.607zm136.096 6.042c-9.275-1.05-17.199-4.085-23.73-10.305-9.52-9.065-11.065-15.646-5.919-27.734 6.038-14.183 21.105-26.461 40.09-18.594 9.262 3.838 14.323 11.058 17.328 20.068 1.044 3.13 1.711 6.464 1.998 9.754 1.525 17.449-10.295 28.211-29.767 26.811zm-20.828-44.298c.5-.438.977-.906 1.504-1.309 16.429-12.599 35.573-6.908 40.614 12.068 3.867 14.556-5.074 26.959-20.036 27.799l-5.708.362c5.031 2.264 10.213 3.067 15.407 1.597 7.557-2.139 13.5-6.937 14.966-14.622 2.569-13.465-3.12-32.567-23.055-36.249-9.909-1.83-20.206 2.728-24.805 11.098-4.872 5.516-6.838 11.911-5.963 19.171-.381-7.351 3.156-13.428 7.077-19.914zm5.94 4.177c-2.259 1.208-3.846 2.807-2.651 5.579 1.097 2.544 2.983 4.116 5.904 3.272 2.69-.777 4.321-2.718 3.859-5.591-.593-3.693-3.312-4.121-7.112-3.259zm-28.964 28.756c2.975 1.016 5.513-1.678 8.734.283-4.363 4.711-4.807 11.399-9.092 16.136-5.604 6.195-17.907 4.936-23.923-2.497-2.573-3.179-4.124-6.869-4.894-10.824-.655-3.366-.92-6.809-1.352-10.18 1.499-1.219 2.614-.388 3.549.572 3.49 3.583 7.86 3.066 12.19 2.696 1.747-.149 3.312-.807 3.791-2.703.447-1.769-.843-2.727-2.035-3.668l-2.349-1.857c-2.098-1.751-3.069-3.962-2.339-6.656.728-2.687 3.045-3.438 5.401-3.733 4.651-.583 8.991.661 12.685 3.406 3.467 2.577 2.216 7.081-2.144 9.681-1.872 1.117-5.785.153-5.172 4.084.546 3.507 3.439 4.623 6.95 5.259zm-86.81-31.852c-.264-16.449 10.318-30.544 24.292-35.626 12.082-4.394 31.782 4.305 36.4 19.425 1.886 6.176 2.445 12.436 1.549 18.742-1.815 12.763-10.682 20.432-26.001 21.672-11.752.951-22.441-2.381-30.882-11.11-3.352-3.466-4.846-7.885-5.357-13.102zm13.622 15.504c11.133 6.69 22.606 7.159 34.36 1.806a18.47 18.47 0 0 0 8.639-8.035c5.022-9.156 2.891-25.654-4.061-32.899-9.365-9.759-20.814-12.234-32.639-5.666-14.678 8.153-25.582 29.939-6.298 44.795zm124.341-52.115c-3.064-.721-5.411 1.218-9.085 1.131 2.305-5.009 6.086-5.427 9.929-5.017 7.613.812 14.103 7.769 13.527 15.377-4.953-4.106-7.122-10.974-14.37-11.491zm-94.797-23.474c3.326 1.471 6.587 2.522 6.957 7.442-4.618-1.108-7.844-4.81-12.437-4.592-4.817.229-7.345 4.678-11.595 6.297-.218-7.523 7.018-11.313 17.075-9.147zm-17.197-5.481c.903 1.124 2.065 1.816 1.186 3.637-4.139-.206-6.583-3.201-10.148-6.011 4.113-1.352 6.38.528 8.962 2.374zm134.714 28.179c1.439-.75 2.619-1.473 3.86.272-.989 2.833-3.208 3.325-5.888 3.178-.577-1.948.929-2.405 2.027-3.45zm-140.91 11.033c12.2-7.039 22.321-5.316 31.004 5.02 7.422 8.834 7.635 23.829.461 32.425-6.003 7.193-18.318 8.611-28.034 3.179-1.594-.891-2.963-2.25-4.623-2.95-15.222-6.411-12.229-24.124-4.256-32.763 1.57-1.701 3.422-3.142 5.447-4.911zm30.359 18.119c-.074-3.442-1.861-5.279-5.272-5.122-2.716.125-4.144 1.852-4.258 4.556-.122 2.872 1.262 4.858 4.027 5.461 3.222.703 5.007-.94 5.504-4.895z"/></svg>